<?xml version="1.0" encoding="UTF-8" ?>
<!DOCTYPE svg PUBLIC "-//W3C//DTD SVG 1.1//EN" "http://www.w3.org/Graphics/SVG/1.1/DTD/svg11.dtd">
<svg width="3402pt" height="4536pt" viewBox="0 0 3402 4536" version="1.1" xmlns="http://www.w3.org/2000/svg">
<path fill="#198754" stroke="#198754" stroke-width="0.09375" opacity="1.00" d=" M 0.00 0.00 L 3402.00 0.00 L 3402.00 4536.00 L 0.00 4536.00 L 0.00 0.00 M 3197.31 95.33 C 3196.60 90.03 3195.25 84.86 3193.51 79.82 C 3190.42 85.64 3187.95 91.80 3184.34 97.33 C 3170.52 118.61 3149.04 133.98 3125.76 143.45 C 3127.11 130.90 3125.43 117.44 3118.16 106.83 C 3109.70 93.83 3095.59 86.30 3081.95 79.86 C 3084.18 84.05 3086.81 88.02 3088.97 92.26 C 3085.54 88.60 3082.54 84.51 3078.55 81.42 C 3072.15 75.98 3064.32 72.78 3056.81 69.26 C 3059.83 76.56 3063.31 83.72 3065.19 91.44 C 3058.47 83.50 3050.84 75.81 3040.86 72.17 C 3026.60 66.76 3011.13 66.83 2996.15 65.43 C 3003.59 74.32 3012.08 82.37 3018.48 92.10 C 2981.83 78.82 2943.05 71.08 2904.01 70.82 C 2838.24 70.32 2772.21 89.70 2717.82 126.84 C 2647.09 174.04 2595.84 249.68 2579.07 333.12 C 2572.94 363.30 2570.37 394.35 2573.11 425.07 C 2576.88 470.31 2589.58 514.94 2611.07 554.98 C 2647.32 623.09 2708.36 677.71 2780.22 705.88 C 2822.64 722.50 2868.49 730.57 2914.03 728.78 C 2961.78 726.69 3009.10 714.41 3051.66 692.61 C 3120.22 657.41 3175.82 597.49 3205.14 526.15 C 3223.44 482.31 3231.98 434.43 3230.05 386.96 C 3228.12 340.11 3216.31 293.62 3195.16 251.74 C 3186.18 233.76 3175.16 216.88 3163.20 200.75 C 3162.67 199.70 3161.19 198.61 3161.95 197.35 C 3164.61 189.99 3169.35 183.33 3175.75 178.75 C 3189.83 168.52 3206.94 164.09 3223.30 158.95 C 3219.35 156.37 3215.48 153.57 3211.02 151.96 C 3206.49 150.15 3201.56 149.88 3196.79 149.40 C 3213.47 141.72 3232.19 141.44 3250.19 140.30 C 3246.37 136.86 3242.42 133.42 3237.63 131.46 C 3227.55 127.25 3216.44 126.55 3205.65 126.65 C 3216.44 122.82 3227.92 121.59 3239.27 120.56 C 3236.96 118.23 3234.61 115.94 3232.01 113.98 C 3226.02 109.24 3218.38 107.47 3211.01 106.30 C 3214.42 102.20 3217.90 98.00 3219.93 92.99 C 3224.23 82.67 3224.36 71.23 3224.29 60.22 C 3215.58 72.13 3208.38 85.36 3197.31 95.33 M 2047.69 114.61 C 2048.68 120.78 2050.16 126.87 2051.19 133.04 C 2051.53 134.44 2050.25 135.52 2049.69 136.66 C 2041.51 148.18 2033.36 159.72 2025.17 171.23 C 2020.75 169.05 2016.05 166.90 2011.01 167.20 C 2006.21 167.45 2001.19 169.10 1997.95 172.79 C 2002.11 173.03 2006.41 172.25 2010.50 173.47 C 2014.03 174.33 2017.06 176.45 2019.91 178.65 C 2018.91 180.05 2017.95 181.46 2016.99 182.86 C 2011.84 179.34 2005.57 177.74 1999.38 178.73 C 1999.46 179.51 1999.61 181.07 1999.69 181.85 C 2005.11 181.06 2010.65 182.17 2015.27 185.15 C 2006.39 197.73 1997.60 210.40 1988.52 222.83 C 1981.07 223.95 1973.44 223.80 1965.92 224.33 C 1980.35 234.46 1994.70 244.71 2009.13 254.84 C 2008.47 248.32 2006.63 241.94 2006.29 235.41 C 2016.47 220.50 2027.16 205.91 2037.53 191.13 C 2044.09 196.05 2051.09 200.41 2057.49 205.52 C 2059.42 213.73 2060.37 222.14 2062.19 230.38 C 2070.87 218.18 2079.52 205.96 2088.14 193.71 C 2080.05 195.12 2072.06 197.01 2063.99 198.42 C 2059.08 195.95 2054.94 192.13 2050.32 189.14 C 2058.26 177.75 2066.36 166.47 2074.35 155.12 C 2082.35 160.07 2090.31 165.30 2096.97 172.01 C 2100.62 175.69 2102.48 180.61 2104.17 185.40 C 2104.92 178.54 2101.03 172.27 2096.34 167.65 C 2089.69 161.10 2081.54 156.43 2073.85 151.26 C 2065.18 163.32 2056.70 175.51 2048.07 187.60 C 2046.25 186.34 2044.47 185.07 2042.70 183.79 C 2052.37 170.01 2062.16 156.32 2071.85 142.55 C 2081.97 150.61 2093.88 156.66 2102.26 166.74 C 2108.84 174.69 2107.09 185.73 2105.88 195.17 C 2113.14 190.62 2120.26 185.65 2128.39 182.73 C 2127.65 185.48 2126.72 188.18 2125.83 190.88 C 2118.67 193.63 2112.04 197.56 2106.03 202.30 C 2106.25 202.95 2106.68 204.26 2106.90 204.91 C 2112.20 200.86 2118.04 197.57 2124.19 194.97 C 2120.57 205.51 2116.71 215.96 2112.95 226.44 C 2103.74 223.71 2091.67 226.02 2087.24 235.37 C 2090.81 234.40 2094.25 232.84 2098.00 232.52 C 2102.12 232.07 2106.12 233.50 2109.95 234.90 C 2109.35 236.50 2108.77 238.10 2108.22 239.70 C 2102.46 238.09 2095.82 237.48 2090.54 240.81 C 2090.63 241.46 2090.80 242.76 2090.88 243.41 C 2096.12 241.53 2101.78 240.79 2107.22 242.36 C 2102.05 257.04 2096.78 271.68 2091.51 286.33 C 2084.46 288.67 2077.42 291.02 2070.45 293.58 C 2086.96 299.56 2103.51 305.39 2120.04 311.31 C 2117.56 305.38 2114.43 299.74 2112.09 293.76 C 2113.42 287.90 2116.05 282.40 2117.89 276.68 C 2121.96 265.20 2126.10 253.75 2130.17 242.27 C 2137.84 245.18 2145.71 247.60 2153.30 250.75 C 2157.47 258.08 2160.60 266.01 2164.49 273.52 C 2169.54 259.42 2174.71 245.37 2179.59 231.22 C 2172.23 234.64 2165.21 238.74 2157.83 242.11 C 2152.37 241.30 2147.28 238.56 2141.99 236.92 C 2146.69 223.86 2151.34 210.79 2156.07 197.74 C 2165.30 200.30 2174.53 203.29 2182.84 208.13 C 2187.28 210.77 2190.21 215.08 2193.18 219.17 C 2192.11 213.95 2188.86 209.46 2184.56 206.40 C 2175.64 199.97 2164.70 197.60 2154.49 194.05 C 2149.51 208.04 2144.45 221.99 2139.47 235.97 C 2137.37 235.28 2135.29 234.56 2133.23 233.85 C 2138.88 218.18 2144.39 202.46 2150.14 186.83 L 2150.92 186.52 C 2157.41 188.88 2163.86 191.34 2170.40 193.59 C 2177.63 196.40 2185.37 199.36 2190.41 205.56 C 2195.07 212.00 2195.95 220.16 2197.23 227.78 C 2200.45 224.16 2203.65 220.52 2207.05 217.05 C 2212.22 211.68 2218.50 207.60 2224.65 203.47 C 2206.79 196.92 2188.84 190.62 2170.96 184.15 C 2154.10 177.93 2136.97 172.36 2120.30 165.69 C 2095.94 148.90 2072.06 131.39 2047.69 114.61 M 118.00 118.00 C 118.00 1316.67 118.00 2515.33 118.00 3714.00 C 1173.67 3714.00 2229.33 3714.00 3285.00 3714.00 C 3284.99 2744.99 3285.02 1775.98 3284.98 806.97 C 3218.72 840.21 3147.07 862.48 3073.86 873.84 C 2988.20 887.03 2900.26 886.08 2815.07 869.93 C 2731.59 854.28 2650.60 824.23 2578.08 779.88 C 2503.59 734.55 2437.94 673.81 2389.98 600.77 C 2346.23 602.10 2302.31 597.97 2259.59 588.45 C 2190.61 573.15 2124.78 543.79 2067.28 502.73 C 2011.15 462.93 1962.88 412.19 1925.52 354.44 C 1879.52 283.59 1850.43 201.91 1840.89 118.00 C 1266.59 118.00 692.30 118.00 118.00 118.00 M 2461.57 187.54 C 2449.07 195.53 2434.63 199.61 2420.39 203.22 C 2424.59 207.38 2427.62 212.58 2428.86 218.39 C 2427.38 219.16 2425.93 219.91 2424.51 220.67 C 2426.01 221.24 2427.55 221.82 2429.11 222.40 C 2428.80 232.52 2425.83 242.29 2422.94 251.92 C 2415.45 275.37 2407.58 298.70 2399.85 322.07 C 2388.79 294.03 2377.66 266.02 2366.63 237.96 C 2369.69 234.68 2372.77 231.42 2375.87 228.17 C 2375.35 227.68 2374.31 226.70 2373.78 226.21 C 2370.42 229.98 2366.78 233.50 2363.48 237.31 C 2364.06 240.18 2365.41 242.83 2366.47 245.56 C 2372.96 261.75 2379.42 277.94 2385.90 294.13 C 2390.01 304.77 2394.66 315.22 2398.43 325.98 C 2397.57 329.39 2396.10 332.61 2394.78 335.86 C 2381.47 302.68 2368.37 269.43 2355.24 236.19 C 2360.14 231.06 2364.93 225.81 2369.67 220.52 C 2351.96 221.19 2334.24 221.93 2316.53 222.61 C 2322.00 227.46 2328.23 231.45 2333.50 236.49 C 2348.36 273.21 2362.73 310.15 2377.38 346.96 C 2372.91 351.06 2368.30 354.99 2363.94 359.19 C 2380.31 358.67 2396.68 358.02 2413.04 357.22 C 2408.81 353.57 2404.42 350.13 2400.05 346.68 C 2406.11 328.52 2412.32 310.39 2418.41 292.23 C 2426.07 270.38 2432.53 248.03 2441.90 226.83 C 2443.36 229.59 2446.06 232.95 2444.16 236.13 C 2438.88 248.11 2435.33 260.75 2430.98 273.08 C 2422.85 296.95 2414.85 320.88 2406.69 344.74 C 2406.51 345.86 2405.41 347.34 2406.50 348.29 C 2410.85 353.30 2415.48 358.05 2419.96 362.95 C 2402.77 363.74 2385.58 364.34 2368.40 365.07 C 2369.08 365.95 2369.78 366.85 2370.51 367.74 C 2389.11 367.31 2407.71 366.35 2426.31 365.66 C 2420.61 359.24 2414.64 353.07 2408.84 346.75 C 2413.19 333.51 2417.77 320.36 2422.22 307.15 C 2430.31 284.11 2437.33 260.67 2446.65 238.09 C 2455.52 261.96 2464.30 285.88 2473.12 309.78 C 2475.82 317.82 2479.48 325.61 2481.62 333.79 C 2478.75 339.39 2475.26 344.65 2472.31 350.21 C 2487.86 344.55 2503.43 338.93 2518.88 332.99 C 2513.90 330.85 2508.68 329.36 2503.67 327.34 C 2502.28 327.01 2502.01 325.54 2501.58 324.44 C 2490.15 293.23 2478.59 262.07 2467.12 230.88 C 2466.12 227.63 2464.24 224.56 2463.95 221.16 C 2466.42 214.95 2469.51 208.99 2472.15 202.85 C 2469.12 203.93 2466.12 205.06 2463.10 206.12 C 2465.36 202.76 2467.72 199.46 2470.47 196.48 C 2472.50 194.10 2475.82 192.22 2475.24 188.60 C 2468.46 193.45 2463.98 200.59 2459.13 207.18 C 2456.29 209.27 2452.59 209.82 2449.36 211.12 C 2452.92 204.36 2457.43 198.15 2462.25 192.24 C 2464.82 189.00 2467.88 186.14 2470.08 182.59 C 2466.78 183.38 2464.37 185.85 2461.57 187.54 M 2064.19 236.24 C 2064.57 237.24 2064.97 238.24 2065.41 239.24 C 2074.68 226.97 2083.08 214.04 2092.36 201.76 C 2092.09 200.93 2091.55 199.27 2091.28 198.44 C 2081.96 210.82 2073.40 223.77 2064.19 236.24 M 2039.31 199.99 C 2030.14 212.94 2020.99 225.90 2011.78 238.82 C 2011.00 239.97 2010.00 241.16 2010.29 242.65 C 2010.77 250.38 2011.32 258.11 2011.79 265.84 C 1995.67 254.63 1979.72 243.16 1963.63 231.89 C 1963.76 233.17 1963.91 234.45 1964.09 235.74 C 1981.07 247.72 1997.97 259.80 2015.02 271.68 C 2014.50 262.47 2013.83 253.26 2013.27 244.06 C 2013.13 242.68 2013.12 241.21 2014.15 240.14 C 2022.68 228.04 2031.29 216.00 2039.81 203.90 C 2045.85 208.11 2051.74 212.55 2057.90 216.59 C 2057.24 214.84 2057.43 212.44 2055.54 211.49 C 2050.12 207.67 2044.71 203.84 2039.31 199.99 M 2476.45 205.66 C 2474.40 209.34 2472.80 213.24 2470.97 217.01 C 2470.16 218.92 2468.63 220.95 2469.84 223.02 C 2482.68 257.28 2494.96 291.78 2508.09 325.91 C 2514.19 329.86 2521.05 332.61 2527.32 336.35 C 2510.97 342.56 2494.41 348.23 2478.19 354.74 C 2479.90 355.20 2481.75 356.55 2483.58 355.56 C 2500.49 349.34 2517.42 343.14 2534.32 336.87 C 2526.45 332.26 2517.91 328.69 2510.34 323.65 C 2497.46 289.50 2485.01 255.16 2472.32 220.93 C 2474.39 216.25 2476.79 211.71 2478.70 206.95 C 2478.14 206.63 2477.01 205.98 2476.45 205.66 M 2210.85 215.03 C 2212.28 216.17 2213.75 217.31 2215.24 218.44 C 2209.23 222.74 2203.93 228.05 2199.70 234.11 C 2199.86 234.84 2200.18 236.29 2200.33 237.01 C 2205.59 230.88 2211.11 224.88 2217.91 220.39 C 2219.15 221.79 2222.04 222.61 2221.40 224.97 C 2219.30 237.76 2217.08 250.54 2214.88 263.32 C 2210.58 262.38 2206.28 261.51 2202.01 260.53 C 2199.87 263.64 2197.75 266.75 2195.70 269.91 C 2201.63 270.40 2207.56 270.97 2213.43 272.03 C 2213.09 273.89 2212.78 275.76 2212.49 277.63 C 2207.28 276.91 2202.06 276.39 2196.83 275.98 C 2196.87 276.79 2196.96 278.39 2197.01 279.20 C 2202.01 279.40 2207.00 279.76 2211.99 280.37 C 2209.47 295.76 2206.76 311.12 2204.21 326.51 C 2198.67 329.84 2193.05 333.04 2187.64 336.56 C 2212.01 340.76 2236.40 344.85 2260.78 349.02 C 2269.03 350.33 2277.61 351.16 2285.81 349.01 C 2294.84 346.78 2303.46 341.19 2307.78 332.74 C 2313.19 322.39 2313.62 309.35 2308.15 298.93 C 2305.26 293.10 2300.51 288.52 2295.43 284.60 C 2301.83 282.92 2308.36 280.82 2313.53 276.51 C 2323.03 268.94 2326.68 255.78 2324.78 244.08 C 2323.45 237.11 2319.84 230.59 2314.76 225.65 C 2317.52 230.89 2321.00 235.92 2322.05 241.88 C 2324.51 253.97 2320.42 267.77 2310.42 275.40 C 2305.25 279.58 2298.64 281.75 2292.06 282.08 C 2289.45 281.69 2287.21 280.13 2284.98 278.87 C 2288.87 277.64 2293.00 277.27 2296.87 275.88 C 2303.52 273.64 2309.63 269.13 2312.84 262.77 C 2317.77 253.06 2317.72 240.61 2311.53 231.45 C 2303.02 218.57 2288.07 211.49 2273.30 208.62 C 2252.50 204.28 2230.29 206.31 2210.85 215.03 M 2168.06 278.75 C 2168.59 279.33 2169.66 280.49 2170.19 281.07 C 2175.48 266.48 2180.62 251.84 2185.90 237.25 C 2185.38 236.67 2184.34 235.50 2183.81 234.92 C 2178.50 249.51 2173.29 264.13 2168.06 278.75 M 2134.30 250.42 C 2128.80 266.29 2122.63 281.98 2117.52 297.95 C 2119.85 305.79 2122.99 313.38 2125.50 321.18 C 2107.01 314.73 2088.65 307.94 2070.17 301.46 C 2070.44 302.30 2070.98 303.99 2071.25 304.84 C 2090.89 311.89 2110.53 318.93 2130.18 325.96 C 2127.21 316.25 2122.96 306.86 2120.57 297.05 C 2125.47 282.64 2130.78 268.35 2135.86 253.99 C 2142.84 256.37 2149.69 259.10 2156.75 261.25 C 2155.65 259.75 2155.02 257.55 2153.02 257.08 C 2146.79 254.80 2140.54 252.61 2134.30 250.42 M 2311.68 296.39 C 2312.70 300.10 2314.82 303.38 2315.91 307.07 C 2319.28 317.64 2317.33 329.43 2312.05 339.03 C 2306.38 349.07 2295.31 355.26 2284.01 356.35 C 2274.27 357.10 2264.57 355.62 2254.99 354.09 C 2233.47 350.45 2211.95 346.77 2190.43 343.17 C 2190.75 343.96 2191.37 345.54 2191.69 346.33 C 2215.61 350.34 2239.53 354.44 2263.45 358.46 C 2272.58 360.02 2282.11 360.56 2291.14 358.08 C 2300.86 355.57 2309.23 348.86 2314.47 340.38 C 2319.77 331.07 2321.96 319.76 2319.68 309.22 C 2318.29 304.40 2316.34 298.91 2311.68 296.39 M 126.93 3762.04 C 126.57 3766.31 126.46 3770.63 126.80 3774.94 C 130.92 3775.01 135.05 3775.00 139.17 3774.91 C 139.52 3770.62 139.46 3766.32 139.10 3762.07 C 135.05 3761.94 130.99 3761.94 126.93 3762.04 M 178.92 3762.08 C 178.57 3766.32 178.47 3770.62 178.80 3774.90 C 213.25 3775.05 247.72 3775.10 282.17 3774.87 C 282.52 3770.61 282.47 3766.34 282.10 3762.11 C 247.71 3761.88 213.31 3761.94 178.92 3762.08 M 321.93 3762.04 C 321.57 3766.31 321.46 3770.63 321.81 3774.93 C 325.93 3775.01 330.05 3775.00 334.17 3774.91 C 334.52 3770.62 334.46 3766.33 334.11 3762.08 C 330.05 3761.95 325.98 3761.94 321.93 3762.04 M 373.92 3762.08 C 373.57 3766.32 373.46 3770.62 373.80 3774.90 C 408.26 3775.05 442.72 3775.10 477.17 3774.87 C 477.52 3770.61 477.46 3766.33 477.10 3762.10 C 442.71 3761.88 408.31 3761.94 373.92 3762.08 M 516.92 3762.04 C 516.57 3766.31 516.46 3770.63 516.80 3774.94 C 520.92 3775.01 525.04 3775.00 529.17 3774.90 C 529.52 3770.62 529.46 3766.32 529.11 3762.07 C 525.04 3761.95 520.98 3761.94 516.92 3762.04 M 568.92 3762.07 C 568.57 3766.32 568.47 3770.62 568.80 3774.90 C 603.26 3775.05 637.72 3775.10 672.17 3774.87 C 672.51 3770.61 672.46 3766.33 672.10 3762.10 C 637.71 3761.89 603.31 3761.94 568.92 3762.07 M 711.92 3762.04 C 711.57 3766.31 711.47 3770.63 711.80 3774.93 C 715.92 3775.00 720.04 3775.00 724.17 3774.90 C 724.52 3770.62 724.46 3766.33 724.11 3762.07 C 720.04 3761.95 715.98 3761.94 711.92 3762.04 M 763.92 3762.07 C 763.57 3766.32 763.46 3770.62 763.81 3774.90 C 798.26 3775.05 832.72 3775.11 867.17 3774.87 C 867.51 3770.61 867.46 3766.33 867.11 3762.10 C 832.71 3761.88 798.32 3761.95 763.92 3762.07 M 906.92 3762.04 C 906.57 3766.31 906.47 3770.63 906.80 3774.94 C 910.92 3775.01 915.04 3775.00 919.17 3774.90 C 919.52 3770.62 919.46 3766.33 919.11 3762.07 C 915.04 3761.95 910.98 3761.94 906.92 3762.04 M 958.92 3762.08 C 958.57 3766.32 958.47 3770.62 958.80 3774.90 C 993.25 3775.04 1027.72 3775.12 1062.17 3774.86 C 1062.52 3770.61 1062.46 3766.34 1062.11 3762.11 C 1027.71 3761.88 993.31 3761.94 958.92 3762.08 M 1101.92 3762.04 C 1101.56 3766.31 1101.46 3770.63 1101.80 3774.94 C 1105.92 3775.01 1110.04 3775.00 1114.17 3774.91 C 1114.51 3770.62 1114.46 3766.33 1114.10 3762.07 C 1110.04 3761.95 1105.98 3761.94 1101.92 3762.04 M 1153.93 3762.07 C 1153.57 3766.32 1153.46 3770.62 1153.80 3774.90 C 1188.25 3775.05 1222.72 3775.11 1257.17 3774.87 C 1257.52 3770.61 1257.46 3766.34 1257.11 3762.11 C 1222.71 3761.88 1188.32 3761.95 1153.93 3762.07 M 1296.92 3762.04 C 1296.56 3766.31 1296.46 3770.63 1296.81 3774.94 C 1300.92 3775.01 1305.04 3775.00 1309.17 3774.90 C 1309.52 3770.62 1309.46 3766.33 1309.11 3762.07 C 1305.04 3761.94 1300.97 3761.94 1296.92 3762.04 M 1348.92 3762.08 C 1348.57 3766.32 1348.46 3770.62 1348.80 3774.90 C 1383.25 3775.05 1417.71 3775.11 1452.17 3774.87 C 1452.52 3770.61 1452.46 3766.34 1452.10 3762.11 C 1417.71 3761.88 1383.31 3761.94 1348.92 3762.08 M 1491.92 3762.04 C 1491.56 3766.31 1491.46 3770.63 1491.80 3774.94 C 1495.92 3775.01 1500.04 3775.00 1504.17 3774.90 C 1504.52 3770.62 1504.46 3766.32 1504.11 3762.07 C 1500.04 3761.95 1495.97 3761.94 1491.92 3762.04 M 1543.92 3762.08 C 1543.57 3766.32 1543.46 3770.62 1543.80 3774.90 C 1578.25 3775.04 1612.72 3775.11 1647.17 3774.87 C 1647.52 3770.61 1647.46 3766.33 1647.11 3762.10 C 1612.72 3761.88 1578.32 3761.94 1543.92 3762.08 M 1686.92 3762.04 C 1686.56 3766.31 1686.46 3770.63 1686.80 3774.94 C 1690.92 3775.01 1695.04 3775.00 1699.17 3774.91 C 1699.51 3770.62 1699.46 3766.33 1699.10 3762.07 C 1695.04 3761.95 1690.97 3761.94 1686.92 3762.04 M 1738.92 3762.08 C 1738.56 3766.32 1738.46 3770.62 1738.80 3774.90 C 1773.25 3775.05 1807.72 3775.11 1842.17 3774.87 C 1842.52 3770.61 1842.46 3766.33 1842.10 3762.10 C 1807.71 3761.89 1773.31 3761.94 1738.92 3762.08 M 1881.92 3762.04 C 1881.56 3766.31 1881.46 3770.63 1881.80 3774.93 C 1885.91 3775.01 1890.04 3775.00 1894.17 3774.91 C 1894.51 3770.62 1894.45 3766.33 1894.11 3762.07 C 1890.04 3761.94 1885.97 3761.94 1881.92 3762.04 M 1933.92 3762.07 C 1933.56 3766.32 1933.46 3770.61 1933.80 3774.89 C 1968.25 3775.06 2002.71 3775.10 2037.17 3774.87 C 2037.51 3770.61 2037.46 3766.33 2037.10 3762.10 C 2002.71 3761.88 1968.31 3761.94 1933.92 3762.07 M 2076.92 3762.04 C 2076.56 3766.31 2076.46 3770.63 2076.80 3774.94 C 2080.91 3775.01 2085.04 3775.00 2089.17 3774.90 C 2089.51 3770.62 2089.46 3766.33 2089.11 3762.07 C 2085.03 3761.95 2080.97 3761.94 2076.92 3762.04 M 2128.93 3762.08 C 2128.56 3766.32 2128.46 3770.62 2128.80 3774.90 C 2163.25 3775.04 2197.71 3775.11 2232.17 3774.87 C 2232.51 3770.61 2232.46 3766.34 2232.10 3762.11 C 2197.71 3761.88 2163.32 3761.94 2128.93 3762.08 M 2271.93 3762.04 C 2271.56 3766.31 2271.46 3770.63 2271.80 3774.94 C 2275.91 3775.01 2280.04 3775.00 2284.17 3774.90 C 2284.51 3770.62 2284.45 3766.33 2284.11 3762.07 C 2280.03 3761.95 2275.97 3761.94 2271.93 3762.04 M 2323.92 3762.07 C 2323.56 3766.32 2323.46 3770.61 2323.80 3774.89 C 2358.25 3775.06 2392.72 3775.10 2427.17 3774.87 C 2427.51 3770.61 2427.45 3766.33 2427.10 3762.10 C 2392.71 3761.88 2358.31 3761.94 2323.92 3762.07 M 2466.89 3762.01 C 2466.74 3766.31 2466.74 3770.64 2466.88 3774.99 C 2470.97 3775.02 2475.06 3774.99 2479.17 3774.90 C 2479.51 3770.62 2479.45 3766.32 2479.10 3762.07 C 2475.02 3761.95 2470.94 3761.94 2466.89 3762.01 M 2518.89 3762.05 C 2518.74 3766.33 2518.74 3770.63 2518.89 3774.95 C 2553.49 3774.93 2588.10 3775.24 2622.71 3774.80 C 2622.66 3770.63 2622.64 3766.47 2622.62 3762.33 C 2613.75 3761.62 2604.86 3762.09 2596.00 3761.99 C 2570.29 3762.03 2544.59 3761.89 2518.89 3762.05 M 2661.88 3761.98 C 2661.74 3766.30 2661.74 3770.64 2661.89 3775.00 C 2666.15 3775.03 2670.43 3774.98 2674.71 3774.81 C 2674.66 3770.63 2674.65 3766.46 2674.62 3762.31 C 2670.37 3761.96 2666.12 3761.89 2661.88 3761.98 M 2713.89 3762.05 C 2713.74 3766.33 2713.74 3770.63 2713.88 3774.95 C 2748.49 3774.93 2783.10 3775.24 2817.71 3774.79 C 2817.66 3770.63 2817.64 3766.46 2817.62 3762.32 C 2808.75 3761.63 2799.86 3762.09 2791.00 3761.99 C 2765.29 3762.03 2739.59 3761.89 2713.89 3762.05 M 2856.88 3761.99 C 2856.74 3766.30 2856.74 3770.64 2856.89 3775.00 C 2861.15 3775.03 2865.42 3774.98 2869.71 3774.81 C 2869.66 3770.63 2869.64 3766.46 2869.62 3762.31 C 2865.37 3761.96 2861.11 3761.89 2856.88 3761.99 M 2908.89 3762.05 C 2908.74 3766.33 2908.74 3770.63 2908.89 3774.95 C 2943.49 3774.94 2978.10 3775.23 3012.70 3774.80 C 3012.66 3770.63 3012.64 3766.47 3012.62 3762.32 C 3003.75 3761.62 2994.86 3762.10 2986.00 3761.99 C 2960.29 3762.03 2934.59 3761.89 2908.89 3762.05 M 3051.89 3761.98 C 3051.74 3766.30 3051.74 3770.64 3051.89 3775.00 C 3056.15 3775.03 3060.42 3774.98 3064.71 3774.81 C 3064.66 3770.63 3064.64 3766.46 3064.62 3762.31 C 3060.37 3761.96 3056.11 3761.89 3051.89 3761.98 M 3103.89 3762.04 C 3103.73 3766.33 3103.73 3770.63 3103.89 3774.95 C 3138.49 3774.93 3173.10 3775.24 3207.71 3774.79 C 3207.66 3770.62 3207.64 3766.46 3207.62 3762.32 C 3202.41 3761.92 3197.20 3761.87 3192.00 3761.97 C 3162.63 3762.05 3133.26 3761.89 3103.89 3762.04 M 3246.88 3761.98 C 3246.73 3766.30 3246.74 3770.64 3246.89 3775.00 C 3251.15 3775.03 3255.42 3774.98 3259.71 3774.81 C 3259.66 3770.63 3259.65 3766.46 3259.62 3762.31 C 3255.37 3761.96 3251.11 3761.89 3246.88 3761.98 M 3280.04 3780.88 C 3279.97 3815.29 3279.96 3849.71 3280.05 3884.12 C 3284.33 3884.24 3288.63 3884.24 3292.95 3884.12 C 3293.03 3849.70 3293.03 3815.29 3292.96 3780.88 C 3288.63 3780.72 3284.33 3780.72 3280.04 3780.88 M 110.04 3797.88 C 109.98 3832.29 109.95 3866.70 110.05 3901.12 C 114.35 3901.23 118.65 3901.24 122.95 3901.12 C 123.04 3866.71 123.03 3832.29 122.96 3797.88 C 118.65 3797.72 114.34 3797.72 110.04 3797.88 M 3280.01 3923.88 C 3279.95 3927.94 3279.95 3932.02 3280.03 3936.12 C 3284.33 3936.24 3288.65 3936.24 3292.98 3936.12 C 3293.02 3932.02 3293.02 3927.94 3292.99 3923.88 C 3288.65 3923.72 3284.32 3923.72 3280.01 3923.88 M 110.01 3940.88 C 109.96 3944.94 109.97 3949.02 110.02 3953.12 C 114.34 3953.24 118.66 3953.23 122.98 3953.12 C 123.03 3949.02 123.04 3944.94 122.99 3940.88 C 118.66 3940.72 114.34 3940.72 110.01 3940.88 M 3280.04 3975.88 C 3279.97 4010.29 3279.96 4044.71 3280.05 4079.12 C 3284.33 4079.23 3288.63 4079.23 3292.95 4079.12 C 3293.04 4044.70 3293.02 4010.29 3292.96 3975.88 C 3288.64 3975.72 3284.33 3975.73 3280.04 3975.88 M 110.04 3992.88 C 109.97 4027.29 109.96 4061.71 110.05 4096.12 C 114.35 4096.24 118.65 4096.23 122.95 4096.12 C 123.04 4061.70 123.02 4027.29 122.96 3992.88 C 118.65 3992.72 114.35 3992.72 110.04 3992.88 M 3280.01 4118.88 C 3279.95 4122.94 3279.95 4127.02 3280.02 4131.12 C 3284.32 4131.23 3288.64 4131.23 3292.98 4131.12 C 3293.01 4127.02 3293.01 4122.94 3292.98 4118.88 C 3288.64 4118.72 3284.32 4118.72 3280.01 4118.88 M 110.01 4135.88 C 109.96 4139.94 109.97 4144.02 110.03 4148.12 C 114.34 4148.24 118.66 4148.24 122.98 4148.12 C 123.03 4144.02 123.04 4139.93 122.99 4135.87 C 118.66 4135.72 114.34 4135.72 110.01 4135.88 M 3280.04 4170.88 C 3279.97 4205.29 3279.96 4239.70 3280.05 4274.12 C 3284.33 4274.23 3288.63 4274.23 3292.95 4274.12 C 3293.03 4239.71 3293.03 4205.29 3292.96 4170.88 C 3288.63 4170.72 3284.33 4170.72 3280.04 4170.88 M 110.04 4187.88 C 109.98 4222.29 109.96 4256.70 110.05 4291.12 C 114.35 4291.23 118.65 4291.23 122.95 4291.12 C 123.04 4256.70 123.03 4222.29 122.96 4187.88 C 118.65 4187.72 114.34 4187.72 110.04 4187.88 M 3280.01 4313.88 C 3279.95 4317.94 3279.95 4322.02 3280.02 4326.12 C 3284.32 4326.23 3288.64 4326.23 3292.98 4326.12 C 3293.02 4322.02 3293.02 4317.93 3292.99 4313.88 C 3288.65 4313.72 3284.32 4313.72 3280.01 4313.88 M 110.01 4330.88 C 109.96 4334.93 109.96 4339.01 110.02 4343.12 C 114.34 4343.23 118.66 4343.23 122.97 4343.12 C 123.03 4339.02 123.03 4334.94 122.99 4330.88 C 118.66 4330.72 114.34 4330.72 110.01 4330.88 M 3280.04 4365.88 C 3279.97 4400.29 3279.95 4434.70 3280.05 4469.12 C 3284.33 4469.23 3288.63 4469.23 3292.95 4469.12 C 3293.04 4434.71 3293.03 4400.29 3292.96 4365.88 C 3288.64 4365.72 3284.33 4365.72 3280.04 4365.88 M 110.04 4382.88 C 109.98 4417.29 109.96 4451.70 110.05 4486.12 C 114.35 4486.23 118.65 4486.23 122.95 4486.12 C 123.04 4451.71 123.02 4417.29 122.96 4382.88 C 118.65 4382.72 114.34 4382.72 110.04 4382.88 M 131.93 4480.04 C 131.57 4484.31 131.47 4488.63 131.80 4492.94 C 135.92 4493.01 140.05 4493.00 144.17 4492.90 C 144.52 4488.62 144.47 4484.33 144.11 4480.08 C 140.05 4479.95 135.98 4479.94 131.93 4480.04 M 183.92 4480.08 C 183.57 4484.32 183.47 4488.62 183.80 4492.89 C 218.25 4493.05 252.72 4493.11 287.17 4492.87 C 287.52 4488.60 287.46 4484.33 287.11 4480.11 C 252.71 4479.90 218.32 4479.96 183.92 4480.08 M 326.92 4480.05 C 326.57 4484.31 326.47 4488.63 326.80 4492.93 C 330.92 4493.00 335.05 4493.00 339.17 4492.91 C 339.52 4488.62 339.46 4484.33 339.11 4480.08 C 335.04 4479.95 330.98 4479.94 326.92 4480.05 M 378.92 4480.08 C 378.57 4484.32 378.47 4488.62 378.80 4492.90 C 413.26 4493.05 447.72 4493.11 482.17 4492.87 C 482.52 4488.61 482.46 4484.34 482.11 4480.11 C 447.71 4479.91 413.31 4479.95 378.92 4480.08 M 521.92 4480.05 C 521.57 4484.31 521.47 4488.63 521.81 4492.93 C 525.92 4493.00 530.05 4493.00 534.17 4492.91 C 534.52 4488.62 534.46 4484.33 534.11 4480.08 C 530.04 4479.95 525.98 4479.94 521.92 4480.05 M 573.92 4480.08 C 573.57 4484.32 573.46 4488.62 573.80 4492.90 C 608.25 4493.05 642.72 4493.11 677.17 4492.87 C 677.52 4488.61 677.46 4484.33 677.10 4480.11 C 642.71 4479.91 608.31 4479.96 573.92 4480.08 M 716.92 4480.04 C 716.57 4484.31 716.46 4488.63 716.80 4492.94 C 720.92 4493.00 725.05 4493.00 729.17 4492.90 C 729.52 4488.62 729.46 4484.33 729.11 4480.08 C 725.04 4479.95 720.98 4479.94 716.92 4480.04 M 768.92 4480.08 C 768.57 4484.32 768.46 4488.62 768.80 4492.90 C 803.26 4493.05 837.72 4493.11 872.17 4492.87 C 872.52 4488.61 872.46 4484.34 872.10 4480.11 C 837.71 4479.90 803.32 4479.97 768.92 4480.08 M 911.92 4480.05 C 911.57 4484.31 911.47 4488.63 911.80 4492.93 C 915.92 4493.00 920.04 4493.00 924.17 4492.91 C 924.52 4488.62 924.46 4484.33 924.11 4480.08 C 920.04 4479.95 915.98 4479.94 911.92 4480.05 M 963.92 4480.08 C 963.57 4484.32 963.46 4488.62 963.80 4492.89 C 998.25 4493.05 1032.72 4493.11 1067.17 4492.87 C 1067.51 4488.61 1067.46 4484.33 1067.10 4480.11 C 1032.71 4479.90 998.31 4479.96 963.92 4480.08 M 1106.92 4480.04 C 1106.56 4484.31 1106.46 4488.63 1106.80 4492.94 C 1110.92 4493.01 1115.04 4493.00 1119.17 4492.91 C 1119.51 4488.62 1119.46 4484.33 1119.11 4480.08 C 1115.04 4479.95 1110.98 4479.94 1106.92 4480.04 M 1158.92 4480.08 C 1158.57 4484.32 1158.46 4488.62 1158.80 4492.90 C 1193.25 4493.04 1227.72 4493.11 1262.17 4492.87 C 1262.51 4488.61 1262.46 4484.33 1262.10 4480.11 C 1227.71 4479.90 1193.31 4479.97 1158.92 4480.08 M 1301.92 4480.04 C 1301.57 4484.31 1301.47 4488.63 1301.80 4492.94 C 1305.92 4493.00 1310.04 4493.00 1314.17 4492.90 C 1314.51 4488.62 1314.46 4484.33 1314.10 4480.08 C 1310.04 4479.95 1305.97 4479.94 1301.92 4480.04 M 1353.92 4480.08 C 1353.57 4484.32 1353.47 4488.62 1353.80 4492.90 C 1388.26 4493.05 1422.72 4493.11 1457.17 4492.86 C 1457.52 4488.60 1457.46 4484.33 1457.11 4480.11 C 1422.71 4479.90 1388.31 4479.96 1353.92 4480.08 M 1496.92 4480.05 C 1496.57 4484.31 1496.46 4488.63 1496.80 4492.94 C 1500.91 4493.01 1505.04 4493.00 1509.17 4492.91 C 1509.51 4488.62 1509.46 4484.33 1509.11 4480.08 C 1505.04 4479.95 1500.98 4479.94 1496.92 4480.05 M 1548.92 4480.08 C 1548.56 4484.32 1548.46 4488.62 1548.80 4492.90 C 1583.25 4493.05 1617.72 4493.11 1652.17 4492.87 C 1652.51 4488.61 1652.46 4484.33 1652.11 4480.11 C 1617.71 4479.91 1583.31 4479.96 1548.92 4480.08 M 1691.92 4480.05 C 1691.56 4484.31 1691.46 4488.63 1691.81 4492.94 C 1695.92 4493.00 1700.04 4493.00 1704.17 4492.90 C 1704.51 4488.62 1704.46 4484.33 1704.11 4480.08 C 1700.04 4479.95 1695.97 4479.95 1691.92 4480.05 M 1743.92 4480.08 C 1743.56 4484.32 1743.46 4488.62 1743.80 4492.90 C 1778.25 4493.04 1812.72 4493.11 1847.17 4492.87 C 1847.51 4488.61 1847.46 4484.33 1847.10 4480.11 C 1812.71 4479.90 1778.31 4479.97 1743.92 4480.08 M 1886.93 4480.05 C 1886.56 4484.31 1886.46 4488.63 1886.80 4492.94 C 1890.92 4493.00 1895.04 4493.00 1899.17 4492.90 C 1899.51 4488.62 1899.46 4484.33 1899.11 4480.08 C 1895.04 4479.95 1890.98 4479.94 1886.93 4480.05 M 1938.92 4480.08 C 1938.56 4484.32 1938.46 4488.62 1938.80 4492.90 C 1973.25 4493.05 2007.71 4493.11 2042.17 4492.87 C 2042.51 4488.61 2042.45 4484.34 2042.10 4480.11 C 2007.71 4479.90 1973.31 4479.97 1938.92 4480.08 M 2081.92 4480.04 C 2081.56 4484.31 2081.46 4488.63 2081.80 4492.94 C 2085.91 4493.01 2090.04 4493.00 2094.17 4492.90 C 2094.51 4488.62 2094.45 4484.33 2094.10 4480.08 C 2090.03 4479.95 2085.97 4479.94 2081.92 4480.04 M 2133.92 4480.08 C 2133.56 4484.32 2133.46 4488.62 2133.80 4492.90 C 2168.26 4493.05 2202.72 4493.11 2237.17 4492.87 C 2237.52 4488.61 2237.46 4484.33 2237.11 4480.10 C 2202.71 4479.91 2168.31 4479.95 2133.92 4480.08 M 2276.92 4480.05 C 2276.56 4484.31 2276.46 4488.63 2276.80 4492.93 C 2280.91 4493.00 2285.03 4493.00 2289.17 4492.91 C 2289.51 4488.62 2289.45 4484.33 2289.11 4480.08 C 2285.03 4479.95 2280.97 4479.95 2276.92 4480.05 M 2328.92 4480.08 C 2328.56 4484.32 2328.46 4488.62 2328.80 4492.90 C 2363.25 4493.05 2397.71 4493.11 2432.17 4492.87 C 2432.51 4488.61 2432.45 4484.34 2432.11 4480.11 C 2397.72 4479.90 2363.32 4479.96 2328.92 4480.08 M 2471.92 4480.05 C 2471.56 4484.31 2471.46 4488.63 2471.80 4492.93 C 2475.91 4493.00 2480.04 4493.00 2484.17 4492.91 C 2484.51 4488.62 2484.45 4484.33 2484.11 4480.08 C 2480.03 4479.95 2475.97 4479.94 2471.92 4480.05 M 2523.92 4480.08 C 2523.56 4484.32 2523.46 4488.62 2523.80 4492.90 C 2558.25 4493.05 2592.71 4493.11 2627.17 4492.87 C 2627.51 4488.61 2627.45 4484.33 2627.10 4480.11 C 2592.71 4479.90 2558.31 4479.97 2523.92 4480.08 M 2666.92 4480.05 C 2666.56 4484.31 2666.46 4488.63 2666.81 4492.94 C 2670.91 4493.00 2675.04 4493.00 2679.17 4492.90 C 2679.51 4488.62 2679.45 4484.33 2679.11 4480.08 C 2675.03 4479.95 2670.97 4479.94 2666.92 4480.05 M 2718.93 4480.08 C 2718.56 4484.32 2718.46 4488.62 2718.81 4492.90 C 2753.25 4493.05 2787.71 4493.11 2822.17 4492.87 C 2822.51 4488.61 2822.45 4484.33 2822.11 4480.11 C 2787.72 4479.90 2753.32 4479.96 2718.93 4480.08 M 2861.92 4480.04 C 2861.55 4484.31 2861.46 4488.63 2861.80 4492.94 C 2865.91 4493.01 2870.04 4493.00 2874.17 4492.90 C 2874.51 4488.62 2874.45 4484.33 2874.11 4480.08 C 2870.03 4479.95 2865.97 4479.94 2861.92 4480.04 M 2913.92 4480.08 C 2913.56 4484.32 2913.46 4488.62 2913.80 4492.90 C 2948.26 4493.05 2982.72 4493.11 3017.17 4492.87 C 3017.51 4488.60 3017.45 4484.33 3017.11 4480.10 C 2982.71 4479.91 2948.31 4479.96 2913.92 4480.08 M 3056.92 4480.05 C 3056.55 4484.31 3056.46 4488.63 3056.80 4492.94 C 3060.91 4493.00 3065.03 4493.00 3069.17 4492.90 C 3069.51 4488.62 3069.45 4484.33 3069.11 4480.08 C 3065.03 4479.95 3060.97 4479.94 3056.92 4480.05 M 3108.92 4480.08 C 3108.55 4484.32 3108.46 4488.62 3108.80 4492.90 C 3143.25 4493.05 3177.72 4493.11 3212.17 4492.87 C 3212.51 4488.61 3212.45 4484.33 3212.11 4480.11 C 3177.71 4479.91 3143.31 4479.96 3108.92 4480.08 M 3251.92 4480.05 C 3251.56 4484.31 3251.46 4488.63 3251.80 4492.94 C 3255.91 4493.01 3260.03 4493.00 3264.17 4492.90 C 3264.51 4488.62 3264.45 4484.33 3264.10 4480.08 C 3260.03 4479.95 3255.97 4479.94 3251.92 4480.05 Z" />
<path fill="#ffffff" stroke="#ffffff" stroke-width="0.09375" opacity="1.00" d=" M 3197.31 95.33 C 3208.38 85.36 3215.58 72.13 3224.29 60.22 C 3224.36 71.23 3224.23 82.67 3219.93 92.99 C 3217.90 98.00 3214.42 102.20 3211.01 106.30 C 3218.38 107.47 3226.02 109.24 3232.01 113.98 C 3234.61 115.94 3236.96 118.23 3239.27 120.56 C 3227.92 121.59 3216.44 122.82 3205.65 126.65 C 3216.44 126.55 3227.55 127.25 3237.63 131.46 C 3242.42 133.42 3246.37 136.86 3250.19 140.30 C 3232.19 141.44 3213.47 141.72 3196.79 149.40 C 3201.56 149.88 3206.49 150.15 3211.02 151.96 C 3215.48 153.57 3219.35 156.37 3223.30 158.95 C 3206.94 164.09 3189.83 168.52 3175.75 178.75 C 3169.35 183.33 3164.61 189.99 3161.95 197.35 C 3161.19 198.61 3162.67 199.70 3163.20 200.75 C 3175.16 216.88 3186.18 233.76 3195.16 251.74 C 3216.31 293.62 3228.12 340.11 3230.05 386.96 C 3231.98 434.43 3223.44 482.31 3205.14 526.15 C 3175.82 597.49 3120.22 657.41 3051.66 692.61 C 3009.10 714.41 2961.78 726.69 2914.03 728.78 C 2868.49 730.57 2822.64 722.50 2780.22 705.88 C 2708.36 677.71 2647.32 623.09 2611.07 554.98 C 2589.58 514.94 2576.88 470.31 2573.11 425.07 C 2570.37 394.35 2572.94 363.30 2579.07 333.12 C 2595.84 249.68 2647.09 174.04 2717.82 126.84 C 2772.21 89.70 2838.24 70.32 2904.01 70.82 C 2943.05 71.08 2981.83 78.82 3018.48 92.10 C 3012.08 82.37 3003.59 74.32 2996.15 65.43 C 3011.13 66.83 3026.60 66.76 3040.86 72.17 C 3050.84 75.81 3058.47 83.50 3065.19 91.44 C 3063.31 83.72 3059.83 76.56 3056.81 69.26 C 3064.32 72.78 3072.15 75.98 3078.55 81.42 C 3082.54 84.51 3085.54 88.60 3088.97 92.26 C 3086.81 88.02 3084.18 84.05 3081.95 79.86 C 3095.59 86.30 3109.70 93.83 3118.16 106.83 C 3125.43 117.44 3127.11 130.90 3125.76 143.45 C 3149.04 133.98 3170.52 118.61 3184.34 97.33 C 3187.95 91.80 3190.42 85.64 3193.51 79.82 C 3195.25 84.86 3196.60 90.03 3197.31 95.33 M 3012.44 73.49 C 3021.48 84.46 3030.29 95.92 3035.62 109.23 C 3040.87 121.39 3042.33 134.75 3042.55 147.87 C 3042.76 157.43 3042.59 167.41 3046.79 176.26 C 3049.93 183.34 3055.91 188.47 3061.47 193.63 C 3051.39 203.10 3039.57 210.63 3026.70 215.68 C 3019.06 219.14 3010.46 220.57 3003.57 225.58 C 2996.65 230.83 2990.88 238.90 2991.37 247.95 C 2991.54 253.07 2994.58 257.46 2998.07 260.98 C 3001.65 264.37 3002.88 269.29 3005.31 273.45 C 3006.91 269.78 3008.19 265.88 3010.65 262.65 C 3012.71 259.95 3015.80 258.37 3018.76 256.83 C 3027.49 252.52 3037.39 251.06 3047.07 251.28 C 3059.44 251.79 3071.60 254.87 3084.03 254.69 C 3095.81 254.79 3107.81 252.81 3118.42 247.50 C 3131.49 241.09 3141.05 229.22 3147.35 216.34 C 3151.41 208.31 3153.84 199.60 3157.31 191.31 C 3161.61 181.31 3169.95 173.44 3179.54 168.50 C 3187.95 163.70 3197.13 160.48 3206.18 157.07 C 3198.95 155.91 3191.62 156.51 3184.47 157.80 C 3183.50 155.90 3182.54 154.02 3181.60 152.13 C 3187.69 146.90 3194.61 142.54 3202.31 140.09 C 3209.84 137.23 3217.96 136.80 3225.74 134.96 C 3213.79 132.23 3201.11 133.08 3189.49 136.86 C 3188.25 135.07 3186.99 133.31 3185.78 131.53 C 3188.90 128.67 3192.14 125.88 3195.91 123.87 C 3203.68 119.43 3212.59 117.87 3221.15 115.64 C 3214.60 112.72 3207.29 112.71 3200.38 114.01 C 3199.50 112.09 3198.63 110.18 3197.80 108.25 C 3206.09 102.96 3213.02 94.99 3215.55 85.34 C 3211.49 89.36 3208.38 94.27 3204.00 97.97 C 3199.13 102.55 3193.20 105.77 3187.03 108.21 C 3187.25 107.15 3187.70 105.02 3187.93 103.95 C 3170.89 128.18 3144.63 144.70 3116.77 153.80 C 3119.12 143.76 3120.83 133.11 3118.15 122.96 C 3115.57 112.35 3108.23 103.43 3099.45 97.23 C 3103.98 108.84 3106.68 121.20 3106.42 133.71 C 3104.23 133.96 3102.08 134.23 3099.96 134.51 C 3096.35 123.94 3093.48 112.98 3087.78 103.27 C 3083.37 95.45 3077.55 88.19 3069.93 83.32 C 3073.67 94.30 3074.43 105.94 3073.91 117.46 C 3065.95 105.55 3059.42 92.05 3047.62 83.35 C 3037.52 75.96 3024.56 74.41 3012.44 73.49 M 2826.87 94.97 C 2786.10 105.26 2746.64 122.62 2713.72 149.09 C 2730.09 154.70 2746.38 160.61 2762.92 165.71 C 2767.25 164.79 2771.02 161.80 2775.10 160.00 C 2824.10 134.94 2880.03 122.74 2935.01 127.68 C 2938.59 128.54 2941.39 126.03 2943.92 123.89 C 2956.13 113.65 2969.12 104.23 2983.42 97.10 C 2932.56 83.10 2878.12 82.63 2826.87 94.97 M 2768.99 186.98 C 2764.88 189.38 2760.36 191.53 2757.58 195.55 C 2737.48 224.36 2721.69 256.86 2716.09 291.77 C 2751.84 328.72 2787.74 365.53 2823.47 402.52 C 2825.35 404.04 2826.81 407.41 2829.73 406.54 C 2873.35 398.17 2916.98 389.81 2960.59 381.41 C 2962.98 381.37 2963.08 378.49 2963.97 376.83 C 2971.69 355.61 2979.53 334.44 2987.34 313.26 C 2988.57 310.87 2986.10 308.94 2985.12 307.01 C 2983.43 315.35 2978.80 322.63 2973.36 329.02 C 2970.57 325.65 2967.91 322.19 2965.26 318.73 C 2962.85 326.89 2957.41 333.69 2951.21 339.33 C 2947.23 334.28 2944.46 328.36 2943.31 322.03 C 2940.39 326.74 2936.80 331.14 2932.07 334.10 C 2925.10 338.34 2916.97 339.96 2909.00 340.96 C 2909.09 330.48 2910.79 319.11 2917.97 310.97 C 2922.25 305.86 2928.36 302.82 2934.45 300.36 C 2924.79 298.73 2916.84 292.27 2911.18 284.56 C 2919.94 279.49 2930.13 275.75 2940.38 277.84 C 2937.47 273.96 2934.65 270.02 2932.10 265.90 C 2937.28 264.15 2942.41 261.85 2947.97 261.62 C 2953.53 261.22 2958.86 263.30 2963.82 265.59 C 2962.27 261.21 2961.07 256.73 2960.10 252.19 C 2969.57 252.42 2979.94 253.97 2986.76 261.23 C 2990.32 264.29 2991.83 269.33 2996.17 271.52 C 2995.75 266.88 2991.54 264.40 2989.16 260.86 C 2984.84 254.78 2983.59 246.73 2985.73 239.60 C 2988.75 228.86 2997.42 220.53 3007.23 215.69 C 2987.20 195.42 2966.98 175.33 2946.72 155.29 C 2943.86 152.70 2941.50 148.63 2937.14 148.91 C 2878.88 142.42 2819.29 157.48 2768.99 186.98 M 3155.33 215.52 C 3151.71 222.32 3148.22 229.25 3143.35 235.26 C 3146.49 238.57 3149.76 241.77 3153.00 245.00 C 3165.91 257.93 3177.41 272.23 3187.61 287.39 C 3192.85 294.70 3196.61 302.95 3201.86 310.27 C 3192.05 276.27 3175.72 244.36 3155.33 215.52 M 3071.55 260.65 C 3057.42 259.11 3042.86 255.78 3028.85 259.88 C 3028.20 261.86 3027.58 263.84 3027.03 265.84 C 3028.69 267.48 3030.44 269.03 3032.21 270.60 C 3029.39 271.99 3026.27 272.84 3023.74 274.68 C 3022.64 276.78 3021.99 279.05 3021.18 281.25 C 3008.22 316.65 2995.25 352.04 2982.29 387.43 C 2981.21 389.29 2982.41 391.08 2983.39 392.66 C 3003.57 427.87 3023.64 463.15 3043.79 498.38 C 3081.55 494.96 3119.32 491.61 3157.07 488.08 C 3159.95 488.27 3161.04 485.38 3162.32 483.34 C 3173.96 463.77 3181.40 442.06 3187.32 420.17 C 3192.59 399.76 3196.43 378.94 3198.48 357.96 C 3197.76 353.43 3195.53 349.29 3194.18 344.94 C 3180.04 308.55 3156.54 276.22 3128.03 249.73 C 3111.39 260.35 3090.84 262.83 3071.55 260.65 M 2968.54 259.46 C 2969.94 262.79 2971.56 266.21 2974.39 268.61 C 2977.56 271.34 2981.75 272.34 2985.71 273.39 C 2985.95 275.16 2986.20 276.93 2986.50 278.70 C 2987.47 278.44 2989.42 277.90 2990.39 277.64 C 2987.17 272.66 2984.35 267.13 2979.42 263.62 C 2976.23 261.26 2972.30 260.36 2968.54 259.46 M 2942.09 269.07 C 2944.99 272.71 2947.83 276.66 2952.08 278.87 C 2956.45 281.51 2961.73 281.46 2966.69 281.45 C 2966.99 282.73 2967.32 284.01 2967.71 285.30 C 2968.43 284.93 2969.87 284.21 2970.59 283.85 C 2967.23 278.02 2962.97 272.14 2956.48 269.63 C 2951.91 267.61 2946.83 268.32 2942.09 269.07 M 2590.24 440.99 C 2591.00 446.82 2594.22 451.87 2596.76 457.05 C 2593.95 415.63 2598.89 373.40 2613.63 334.46 C 2616.82 327.34 2615.06 319.46 2614.91 311.98 C 2613.96 298.48 2614.75 284.95 2614.77 271.44 C 2591.33 324.29 2582.39 383.64 2590.24 440.99 M 2992.65 280.81 C 2990.90 285.02 2988.76 289.30 2988.94 293.99 C 2988.86 300.18 2991.56 306.16 2996.01 310.43 C 2999.38 305.18 3000.79 298.58 2999.29 292.46 C 2998.11 288.07 2995.46 284.30 2992.65 280.81 M 2921.63 286.41 C 2928.33 293.81 2939.27 295.15 2948.58 292.98 C 2950.24 295.35 2952.10 297.69 2954.93 298.77 C 2951.71 291.83 2945.26 286.27 2937.81 284.40 C 2932.34 283.00 2926.78 284.66 2921.63 286.41 M 2981.15 286.95 C 2980.00 287.89 2980.75 289.98 2982.12 290.29 C 2984.14 289.96 2983.20 285.75 2981.15 286.95 M 2968.90 296.02 C 2966.20 303.71 2968.38 312.33 2973.22 318.68 C 2976.09 313.95 2978.75 308.70 2978.46 303.00 C 2978.41 297.74 2975.93 292.92 2973.15 288.60 C 2971.54 290.96 2969.82 293.30 2968.90 296.02 M 2952.11 329.07 C 2955.66 324.76 2958.78 319.73 2959.14 314.00 C 2959.62 308.99 2957.82 304.16 2955.64 299.75 C 2950.00 308.18 2948.44 319.54 2952.11 329.07 M 2923.13 315.12 C 2918.69 320.15 2916.78 326.81 2915.98 333.34 C 2922.57 331.74 2929.30 329.13 2933.91 323.91 C 2938.36 318.86 2940.30 312.17 2941.13 305.60 C 2934.56 307.39 2927.58 309.66 2923.13 315.12 M 2639.56 337.54 C 2636.93 339.58 2633.72 341.22 2632.19 344.30 C 2613.61 396.64 2611.93 454.73 2627.02 508.15 C 2635.51 522.18 2646.47 534.51 2657.13 546.91 C 2666.66 556.73 2676.21 566.57 2686.90 575.15 C 2689.34 576.55 2691.31 580.42 2694.50 579.37 C 2729.31 567.89 2764.07 556.26 2798.84 544.65 C 2801.03 543.60 2800.10 540.33 2800.64 538.32 C 2804.22 498.93 2807.90 459.56 2811.48 420.17 C 2774.97 382.57 2738.56 344.87 2702.09 307.23 C 2680.11 314.66 2658.42 323.83 2639.56 337.54 M 3045.02 519.23 C 3041.69 519.46 3039.84 522.59 3037.65 524.66 C 3010.10 553.48 2982.35 582.12 2954.76 610.91 C 2960.56 634.61 2966.21 658.35 2971.85 682.09 C 2985.27 681.31 2998.46 678.64 3011.72 676.51 C 3024.58 674.32 3037.35 671.56 3049.91 667.98 C 3067.60 663.31 3084.52 655.27 3098.84 643.82 C 3122.95 624.98 3142.91 601.44 3160.51 576.56 C 3162.16 573.93 3165.15 571.52 3164.32 568.07 C 3162.47 548.30 3160.86 528.51 3158.96 508.75 C 3120.98 512.22 3083.00 515.70 3045.02 519.23 M 2807.60 563.49 C 2772.35 575.29 2737.11 587.10 2701.88 598.94 C 2702.85 613.27 2703.64 627.61 2704.55 641.95 C 2704.30 644.62 2707.09 645.73 2708.78 647.23 C 2747.21 677.71 2793.22 698.32 2841.33 707.68 C 2847.69 708.51 2854.12 707.68 2860.51 707.32 C 2874.08 706.24 2887.68 705.14 2901.15 703.02 C 2918.58 700.20 2936.58 696.96 2951.94 687.74 C 2946.27 664.12 2940.56 640.51 2934.99 616.87 C 2895.23 599.75 2855.53 582.47 2815.80 565.26 C 2813.17 564.29 2810.45 562.18 2807.60 563.49 Z" />
<path fill="#198754" stroke="#198754" stroke-width="0.09375" opacity="1.00" d=" M 3012.44 73.49 C 3024.56 74.41 3037.52 75.96 3047.62 83.35 C 3059.42 92.05 3065.95 105.55 3073.91 117.46 C 3074.43 105.94 3073.67 94.30 3069.93 83.32 C 3077.55 88.19 3083.37 95.45 3087.78 103.27 C 3093.48 112.98 3096.35 123.94 3099.96 134.51 C 3102.08 134.23 3104.23 133.96 3106.42 133.71 C 3106.68 121.20 3103.98 108.84 3099.45 97.23 C 3108.23 103.43 3115.57 112.35 3118.15 122.96 C 3120.83 133.11 3119.12 143.76 3116.77 153.80 C 3144.63 144.70 3170.89 128.18 3187.93 103.95 C 3187.70 105.02 3187.25 107.15 3187.03 108.21 C 3193.20 105.77 3199.13 102.55 3204.00 97.97 C 3208.38 94.27 3211.49 89.36 3215.55 85.34 C 3213.02 94.99 3206.09 102.96 3197.80 108.25 C 3198.63 110.18 3199.50 112.09 3200.38 114.01 C 3207.29 112.71 3214.60 112.72 3221.15 115.64 C 3212.59 117.87 3203.68 119.43 3195.91 123.87 C 3192.14 125.88 3188.90 128.67 3185.78 131.53 C 3186.99 133.31 3188.25 135.07 3189.49 136.86 C 3201.11 133.08 3213.79 132.23 3225.74 134.96 C 3217.96 136.80 3209.84 137.23 3202.31 140.09 C 3194.61 142.54 3187.69 146.90 3181.60 152.13 C 3182.54 154.02 3183.50 155.90 3184.47 157.80 C 3191.62 156.51 3198.95 155.91 3206.18 157.07 C 3197.13 160.48 3187.95 163.70 3179.54 168.50 C 3169.95 173.44 3161.61 181.31 3157.31 191.31 C 3153.84 199.60 3151.41 208.31 3147.35 216.34 C 3141.05 229.22 3131.49 241.09 3118.42 247.50 C 3107.81 252.81 3095.81 254.79 3084.03 254.69 C 3071.60 254.87 3059.44 251.79 3047.07 251.28 C 3037.39 251.06 3027.49 252.52 3018.76 256.83 C 3015.80 258.37 3012.71 259.95 3010.65 262.65 C 3008.19 265.88 3006.91 269.78 3005.31 273.45 C 3002.88 269.29 3001.65 264.37 2998.07 260.98 C 2994.58 257.46 2991.54 253.07 2991.37 247.95 C 2990.88 238.90 2996.65 230.83 3003.57 225.58 C 3010.46 220.57 3019.06 219.14 3026.70 215.68 C 3039.57 210.63 3051.39 203.10 3061.47 193.63 C 3055.91 188.47 3049.93 183.34 3046.79 176.26 C 3042.59 167.41 3042.76 157.43 3042.55 147.87 C 3042.33 134.75 3040.87 121.39 3035.62 109.23 C 3030.29 95.92 3021.48 84.46 3012.44 73.49 Z" />
<path fill="#198754" stroke="#198754" stroke-width="0.09375" opacity="1.00" d=" M 2826.87 94.97 C 2878.12 82.63 2932.56 83.10 2983.42 97.10 C 2969.12 104.23 2956.13 113.65 2943.92 123.89 C 2941.39 126.03 2938.59 128.54 2935.01 127.68 C 2880.03 122.74 2824.10 134.94 2775.10 160.00 C 2771.02 161.80 2767.25 164.79 2762.92 165.71 C 2746.38 160.61 2730.09 154.70 2713.72 149.09 C 2746.64 122.62 2786.10 105.26 2826.87 94.97 Z" />
<path fill="#ffffff" stroke="#ffffff" stroke-width="0.09375" opacity="1.00" d=" M 2047.69 114.61 C 2072.06 131.39 2095.94 148.90 2120.30 165.69 C 2136.97 172.36 2154.10 177.93 2170.96 184.15 C 2188.84 190.62 2206.79 196.92 2224.65 203.47 C 2218.50 207.60 2212.22 211.68 2207.05 217.05 C 2203.65 220.52 2200.45 224.16 2197.23 227.78 C 2195.95 220.16 2195.07 212.00 2190.41 205.56 C 2185.37 199.36 2177.63 196.40 2170.40 193.59 C 2163.86 191.34 2157.41 188.88 2150.92 186.52 L 2150.14 186.83 C 2144.39 202.46 2138.88 218.18 2133.23 233.85 C 2135.29 234.56 2137.37 235.28 2139.47 235.97 C 2144.45 221.99 2149.51 208.04 2154.49 194.05 C 2164.70 197.60 2175.64 199.97 2184.56 206.40 C 2188.86 209.46 2192.11 213.95 2193.18 219.17 C 2190.21 215.08 2187.28 210.77 2182.84 208.13 C 2174.53 203.29 2165.30 200.30 2156.07 197.74 C 2151.34 210.79 2146.69 223.86 2141.99 236.92 C 2147.28 238.56 2152.37 241.30 2157.83 242.11 C 2165.21 238.74 2172.23 234.64 2179.59 231.22 C 2174.71 245.37 2169.54 259.42 2164.49 273.52 C 2160.60 266.01 2157.47 258.08 2153.30 250.75 C 2145.71 247.60 2137.84 245.18 2130.17 242.27 C 2126.10 253.75 2121.96 265.20 2117.89 276.68 C 2116.05 282.40 2113.42 287.90 2112.09 293.76 C 2114.43 299.74 2117.56 305.38 2120.04 311.31 C 2103.51 305.39 2086.96 299.56 2070.45 293.58 C 2077.42 291.02 2084.46 288.67 2091.51 286.33 C 2096.78 271.68 2102.05 257.04 2107.22 242.36 C 2101.78 240.79 2096.12 241.53 2090.88 243.41 C 2090.80 242.76 2090.63 241.46 2090.54 240.81 C 2095.82 237.48 2102.46 238.09 2108.22 239.70 C 2108.77 238.10 2109.35 236.50 2109.95 234.90 C 2106.12 233.50 2102.12 232.07 2098.00 232.52 C 2094.25 232.84 2090.81 234.40 2087.24 235.37 C 2091.67 226.02 2103.74 223.71 2112.95 226.44 C 2116.71 215.96 2120.57 205.51 2124.19 194.97 C 2118.04 197.57 2112.20 200.86 2106.90 204.91 C 2106.68 204.26 2106.25 202.95 2106.03 202.30 C 2112.04 197.56 2118.67 193.63 2125.83 190.88 C 2126.72 188.18 2127.65 185.48 2128.39 182.73 C 2120.26 185.65 2113.14 190.62 2105.88 195.17 C 2107.09 185.73 2108.84 174.69 2102.26 166.74 C 2093.88 156.66 2081.97 150.61 2071.85 142.55 C 2062.16 156.32 2052.37 170.01 2042.70 183.79 C 2044.47 185.07 2046.25 186.34 2048.07 187.60 C 2056.70 175.51 2065.18 163.32 2073.85 151.26 C 2081.54 156.43 2089.69 161.10 2096.34 167.65 C 2101.03 172.27 2104.92 178.54 2104.17 185.40 C 2102.48 180.61 2100.62 175.69 2096.97 172.01 C 2090.31 165.30 2082.35 160.07 2074.35 155.12 C 2066.36 166.47 2058.26 177.75 2050.32 189.14 C 2054.94 192.13 2059.08 195.95 2063.99 198.42 C 2072.06 197.01 2080.05 195.12 2088.14 193.71 C 2079.52 205.96 2070.87 218.18 2062.19 230.38 C 2060.37 222.14 2059.42 213.73 2057.49 205.52 C 2051.09 200.41 2044.09 196.05 2037.53 191.13 C 2027.16 205.91 2016.47 220.50 2006.29 235.41 C 2006.63 241.94 2008.47 248.32 2009.13 254.84 C 1994.70 244.71 1980.35 234.46 1965.92 224.33 C 1973.44 223.80 1981.07 223.95 1988.52 222.83 C 1997.60 210.40 2006.39 197.73 2015.27 185.15 C 2010.65 182.17 2005.11 181.06 1999.69 181.85 C 1999.61 181.07 1999.46 179.51 1999.38 178.73 C 2005.57 177.74 2011.84 179.34 2016.99 182.86 C 2017.95 181.46 2018.91 180.05 2019.91 178.65 C 2017.06 176.45 2014.03 174.33 2010.50 173.47 C 2006.41 172.25 2002.11 173.03 1997.95 172.79 C 2001.19 169.10 2006.21 167.45 2011.01 167.20 C 2016.05 166.90 2020.75 169.05 2025.17 171.23 C 2033.36 159.72 2041.51 148.18 2049.69 136.66 C 2050.25 135.52 2051.53 134.44 2051.19 133.04 C 2050.16 126.87 2048.68 120.78 2047.69 114.61 Z" />
<path fill="#198754" stroke="#198754" stroke-width="0.09375" opacity="1.00" d=" M 2768.99 186.98 C 2819.29 157.48 2878.88 142.42 2937.14 148.91 C 2941.50 148.63 2943.86 152.70 2946.72 155.29 C 2966.98 175.33 2987.20 195.42 3007.23 215.69 C 2997.42 220.53 2988.75 228.86 2985.73 239.60 C 2983.59 246.73 2984.84 254.78 2989.16 260.86 C 2991.54 264.40 2995.75 266.88 2996.17 271.52 C 2991.83 269.33 2990.32 264.29 2986.76 261.23 C 2979.94 253.97 2969.57 252.42 2960.10 252.19 C 2961.07 256.73 2962.27 261.21 2963.82 265.59 C 2958.86 263.30 2953.53 261.22 2947.97 261.62 C 2942.41 261.85 2937.28 264.15 2932.10 265.90 C 2934.65 270.02 2937.47 273.96 2940.38 277.84 C 2930.13 275.75 2919.94 279.49 2911.18 284.56 C 2916.84 292.27 2924.79 298.73 2934.45 300.36 C 2928.36 302.82 2922.25 305.86 2917.97 310.97 C 2910.79 319.11 2909.09 330.48 2909.00 340.96 C 2916.97 339.96 2925.10 338.34 2932.07 334.10 C 2936.80 331.14 2940.39 326.74 2943.31 322.03 C 2944.46 328.36 2947.23 334.28 2951.21 339.33 C 2957.41 333.69 2962.85 326.89 2965.26 318.73 C 2967.91 322.19 2970.57 325.65 2973.36 329.02 C 2978.80 322.63 2983.43 315.35 2985.12 307.01 C 2986.10 308.94 2988.57 310.87 2987.34 313.26 C 2979.53 334.44 2971.69 355.61 2963.97 376.83 C 2963.08 378.49 2962.98 381.37 2960.59 381.41 C 2916.98 389.81 2873.35 398.17 2829.73 406.54 C 2826.81 407.41 2825.35 404.04 2823.47 402.52 C 2787.74 365.53 2751.84 328.72 2716.09 291.77 C 2721.69 256.86 2737.48 224.36 2757.58 195.55 C 2760.36 191.53 2764.88 189.38 2768.99 186.98 Z" />
<path fill="#ffffff" stroke="#ffffff" stroke-width="0.09375" opacity="1.00" d=" M 2461.57 187.54 C 2464.37 185.85 2466.78 183.38 2470.08 182.59 C 2467.88 186.14 2464.82 189.00 2462.25 192.24 C 2457.43 198.15 2452.92 204.36 2449.36 211.12 C 2452.59 209.82 2456.29 209.27 2459.13 207.18 C 2463.98 200.59 2468.46 193.45 2475.24 188.60 C 2475.82 192.22 2472.50 194.10 2470.47 196.48 C 2467.72 199.46 2465.36 202.76 2463.10 206.12 C 2466.12 205.06 2469.12 203.93 2472.15 202.85 C 2469.51 208.99 2466.42 214.95 2463.95 221.16 C 2464.24 224.56 2466.12 227.63 2467.12 230.88 C 2478.59 262.07 2490.15 293.23 2501.58 324.44 C 2502.01 325.54 2502.28 327.01 2503.67 327.34 C 2508.68 329.36 2513.90 330.85 2518.88 332.99 C 2503.43 338.93 2487.86 344.55 2472.31 350.21 C 2475.26 344.65 2478.75 339.39 2481.62 333.79 C 2479.48 325.61 2475.82 317.82 2473.12 309.78 C 2464.30 285.88 2455.52 261.96 2446.65 238.09 C 2437.33 260.67 2430.31 284.11 2422.22 307.15 C 2417.77 320.36 2413.19 333.51 2408.84 346.75 C 2414.64 353.07 2420.61 359.24 2426.31 365.66 C 2407.71 366.35 2389.11 367.31 2370.51 367.74 C 2369.78 366.85 2369.08 365.95 2368.40 365.07 C 2385.58 364.34 2402.77 363.74 2419.96 362.95 C 2415.48 358.05 2410.85 353.30 2406.50 348.29 C 2405.41 347.34 2406.51 345.86 2406.69 344.74 C 2414.85 320.88 2422.85 296.95 2430.98 273.08 C 2435.33 260.75 2438.88 248.11 2444.16 236.13 C 2446.06 232.95 2443.36 229.59 2441.90 226.83 C 2432.53 248.03 2426.07 270.38 2418.41 292.23 C 2412.32 310.39 2406.11 328.52 2400.05 346.68 C 2404.42 350.13 2408.81 353.57 2413.04 357.22 C 2396.68 358.02 2380.31 358.67 2363.94 359.19 C 2368.30 354.99 2372.91 351.06 2377.38 346.96 C 2362.73 310.15 2348.36 273.21 2333.50 236.49 C 2328.23 231.45 2322.00 227.46 2316.53 222.61 C 2334.24 221.93 2351.96 221.19 2369.67 220.52 C 2364.93 225.81 2360.14 231.06 2355.24 236.19 C 2368.37 269.43 2381.47 302.68 2394.78 335.86 C 2396.10 332.61 2397.57 329.39 2398.43 325.98 C 2394.66 315.22 2390.01 304.77 2385.90 294.13 C 2379.42 277.94 2372.96 261.75 2366.47 245.56 C 2365.41 242.83 2364.06 240.18 2363.48 237.31 C 2366.78 233.50 2370.42 229.98 2373.78 226.21 C 2374.31 226.70 2375.35 227.68 2375.87 228.17 C 2372.77 231.42 2369.69 234.68 2366.63 237.96 C 2377.66 266.02 2388.79 294.03 2399.85 322.07 C 2407.58 298.70 2415.45 275.37 2422.94 251.92 C 2425.83 242.29 2428.80 232.52 2429.11 222.40 C 2427.55 221.82 2426.01 221.24 2424.51 220.67 C 2425.93 219.91 2427.38 219.16 2428.86 218.39 C 2427.62 212.58 2424.59 207.38 2420.39 203.22 C 2434.63 199.61 2449.07 195.53 2461.57 187.54 Z" />
<path fill="#ffffff" stroke="#ffffff" stroke-width="0.09375" opacity="1.00" d=" M 2064.19 236.24 C 2073.40 223.77 2081.96 210.82 2091.28 198.44 C 2091.55 199.27 2092.09 200.93 2092.36 201.76 C 2083.08 214.04 2074.68 226.97 2065.41 239.24 C 2064.97 238.24 2064.57 237.24 2064.19 236.24 Z" />
<path fill="#ffffff" stroke="#ffffff" stroke-width="0.09375" opacity="1.00" d=" M 2039.31 199.99 C 2044.71 203.84 2050.12 207.67 2055.54 211.49 C 2057.43 212.44 2057.24 214.84 2057.90 216.59 C 2051.74 212.55 2045.85 208.11 2039.81 203.90 C 2031.29 216.00 2022.68 228.04 2014.15 240.14 C 2013.12 241.21 2013.13 242.68 2013.27 244.06 C 2013.83 253.26 2014.50 262.47 2015.02 271.68 C 1997.97 259.80 1981.07 247.72 1964.09 235.74 C 1963.91 234.45 1963.76 233.17 1963.63 231.89 C 1979.72 243.16 1995.67 254.63 2011.79 265.84 C 2011.32 258.11 2010.77 250.38 2010.29 242.65 C 2010.00 241.16 2011.00 239.97 2011.78 238.82 C 2020.99 225.90 2030.14 212.94 2039.31 199.99 Z" />
<path fill="#ffffff" stroke="#ffffff" stroke-width="0.09375" opacity="1.00" d=" M 2476.45 205.66 C 2477.01 205.98 2478.14 206.63 2478.70 206.95 C 2476.79 211.71 2474.39 216.25 2472.32 220.93 C 2485.01 255.16 2497.46 289.50 2510.34 323.65 C 2517.91 328.69 2526.45 332.26 2534.32 336.87 C 2517.42 343.14 2500.49 349.34 2483.58 355.56 C 2481.75 356.55 2479.90 355.20 2478.19 354.74 C 2494.41 348.23 2510.97 342.56 2527.32 336.35 C 2521.05 332.61 2514.19 329.86 2508.09 325.91 C 2494.96 291.78 2482.68 257.28 2469.84 223.02 C 2468.63 220.95 2470.16 218.92 2470.97 217.01 C 2472.80 213.24 2474.40 209.34 2476.45 205.66 Z" />
<path fill="#ffffff" stroke="#ffffff" stroke-width="0.09375" opacity="1.00" d=" M 2210.85 215.03 C 2230.29 206.31 2252.50 204.28 2273.30 208.62 C 2288.07 211.49 2303.02 218.57 2311.53 231.45 C 2317.72 240.61 2317.77 253.06 2312.84 262.77 C 2309.63 269.13 2303.52 273.64 2296.87 275.88 C 2293.00 277.27 2288.87 277.64 2284.98 278.87 C 2287.21 280.13 2289.45 281.69 2292.06 282.08 C 2298.64 281.75 2305.25 279.58 2310.42 275.40 C 2320.42 267.77 2324.51 253.97 2322.05 241.88 C 2321.00 235.92 2317.52 230.89 2314.76 225.65 C 2319.84 230.59 2323.45 237.11 2324.78 244.08 C 2326.68 255.78 2323.03 268.94 2313.53 276.51 C 2308.36 280.82 2301.83 282.92 2295.43 284.60 C 2300.51 288.52 2305.26 293.10 2308.15 298.93 C 2313.62 309.35 2313.19 322.39 2307.78 332.74 C 2303.46 341.19 2294.84 346.78 2285.81 349.01 C 2277.61 351.16 2269.03 350.33 2260.78 349.02 C 2236.40 344.85 2212.01 340.76 2187.64 336.56 C 2193.05 333.04 2198.67 329.84 2204.21 326.51 C 2206.76 311.12 2209.47 295.76 2211.99 280.37 C 2207.00 279.76 2202.01 279.40 2197.01 279.20 C 2196.96 278.39 2196.87 276.79 2196.83 275.98 C 2202.06 276.39 2207.28 276.91 2212.49 277.63 C 2212.78 275.76 2213.09 273.89 2213.43 272.03 C 2207.56 270.97 2201.63 270.40 2195.70 269.91 C 2197.75 266.75 2199.87 263.64 2202.01 260.53 C 2206.28 261.51 2210.58 262.38 2214.88 263.32 C 2217.08 250.54 2219.30 237.76 2221.40 224.97 C 2222.04 222.61 2219.15 221.79 2217.91 220.39 C 2211.11 224.88 2205.59 230.88 2200.33 237.01 C 2200.18 236.29 2199.86 234.84 2199.70 234.11 C 2203.93 228.05 2209.23 222.74 2215.24 218.44 C 2213.75 217.31 2212.28 216.17 2210.85 215.03 M 2244.23 219.08 C 2241.65 235.08 2238.86 251.05 2236.18 267.04 C 2237.93 267.33 2239.72 267.62 2241.52 267.91 C 2244.01 253.39 2246.36 238.84 2248.96 224.33 C 2258.87 221.84 2269.83 222.12 2278.97 227.05 C 2285.11 230.32 2288.66 236.88 2290.20 243.45 C 2286.50 240.75 2285.28 236.07 2281.98 233.03 C 2274.18 225.16 2261.49 223.05 2251.37 227.38 C 2248.99 241.06 2246.71 254.75 2244.37 268.43 C 2254.82 270.18 2265.72 271.87 2276.13 269.01 C 2282.46 267.35 2288.19 263.01 2290.92 256.98 C 2294.45 249.59 2295.31 240.63 2292.07 232.98 C 2288.69 225.25 2281.47 219.67 2273.43 217.46 C 2263.86 214.50 2253.49 215.63 2244.23 219.08 M 2234.68 275.71 C 2231.37 295.29 2227.93 314.84 2224.72 334.42 C 2226.46 334.70 2228.24 334.98 2230.04 335.26 C 2233.08 317.87 2235.97 300.45 2238.95 283.04 C 2249.82 284.15 2260.81 285.89 2270.98 290.06 C 2278.23 292.96 2283.74 299.69 2285.26 307.35 C 2282.76 304.58 2281.14 301.14 2278.45 298.55 C 2274.87 294.74 2269.99 292.57 2265.12 290.95 C 2257.42 288.48 2249.42 287.18 2241.43 286.12 C 2238.48 302.67 2235.78 319.27 2232.92 335.83 C 2241.25 336.95 2249.56 338.56 2257.99 338.64 C 2265.80 338.69 2274.11 336.49 2279.53 330.53 C 2285.71 323.65 2287.56 313.97 2287.35 304.98 C 2287.23 298.46 2284.24 291.95 2278.93 288.07 C 2274.10 284.63 2268.41 282.74 2262.81 281.03 C 2253.63 278.36 2244.17 276.72 2234.68 275.71 Z" />
<path fill="#198754" stroke="#198754" stroke-width="0.09375" opacity="1.00" d=" M 2244.23 219.08 C 2253.49 215.63 2263.86 214.50 2273.43 217.46 C 2281.47 219.67 2288.69 225.25 2292.07 232.98 C 2295.31 240.63 2294.45 249.59 2290.92 256.98 C 2288.19 263.01 2282.46 267.35 2276.13 269.01 C 2265.72 271.87 2254.82 270.18 2244.37 268.43 C 2246.71 254.75 2248.99 241.06 2251.37 227.38 C 2261.49 223.05 2274.18 225.16 2281.98 233.03 C 2285.28 236.07 2286.50 240.75 2290.20 243.45 C 2288.66 236.88 2285.11 230.32 2278.97 227.05 C 2269.83 222.12 2258.87 221.84 2248.96 224.33 C 2246.36 238.84 2244.01 253.39 2241.52 267.91 C 2239.72 267.62 2237.93 267.33 2236.18 267.04 C 2238.86 251.05 2241.65 235.08 2244.23 219.08 Z" />
<path fill="#198754" stroke="#198754" stroke-width="0.09375" opacity="1.00" d=" M 3155.33 215.52 C 3175.72 244.36 3192.05 276.27 3201.86 310.27 C 3196.61 302.95 3192.85 294.70 3187.61 287.39 C 3177.41 272.23 3165.91 257.93 3153.00 245.00 C 3149.76 241.77 3146.49 238.57 3143.35 235.26 C 3148.22 229.25 3151.71 222.32 3155.33 215.52 Z" />
<path fill="#ffffff" stroke="#ffffff" stroke-width="0.09375" opacity="1.00" d=" M 2168.06 278.75 C 2173.29 264.13 2178.50 249.51 2183.81 234.92 C 2184.34 235.50 2185.38 236.67 2185.90 237.25 C 2180.62 251.84 2175.48 266.48 2170.19 281.07 C 2169.66 280.49 2168.59 279.33 2168.06 278.75 Z" />
<path fill="#198754" stroke="#198754" stroke-width="0.09375" opacity="1.00" d=" M 3071.55 260.65 C 3090.84 262.83 3111.39 260.35 3128.03 249.73 C 3156.54 276.22 3180.04 308.55 3194.18 344.94 C 3195.53 349.29 3197.76 353.43 3198.48 357.96 C 3196.43 378.94 3192.59 399.76 3187.32 420.17 C 3181.40 442.06 3173.96 463.77 3162.32 483.34 C 3161.04 485.38 3159.95 488.27 3157.07 488.08 C 3119.32 491.61 3081.55 494.96 3043.79 498.38 C 3023.64 463.15 3003.57 427.87 2983.39 392.66 C 2982.41 391.08 2981.21 389.29 2982.29 387.43 C 2995.25 352.04 3008.22 316.65 3021.18 281.25 C 3021.99 279.05 3022.64 276.78 3023.74 274.68 C 3026.27 272.84 3029.39 271.99 3032.21 270.60 C 3030.44 269.03 3028.69 267.48 3027.03 265.84 C 3027.58 263.84 3028.20 261.86 3028.85 259.88 C 3042.86 255.78 3057.42 259.11 3071.55 260.65 Z" />
<path fill="#ffffff" stroke="#ffffff" stroke-width="0.09375" opacity="1.00" d=" M 2134.30 250.42 C 2140.54 252.61 2146.79 254.80 2153.02 257.08 C 2155.02 257.55 2155.65 259.75 2156.75 261.25 C 2149.69 259.10 2142.84 256.37 2135.86 253.99 C 2130.78 268.35 2125.47 282.64 2120.57 297.05 C 2122.96 306.86 2127.21 316.25 2130.18 325.96 C 2110.53 318.93 2090.89 311.89 2071.25 304.84 C 2070.98 303.99 2070.44 302.30 2070.17 301.46 C 2088.65 307.94 2107.01 314.73 2125.50 321.18 C 2122.99 313.38 2119.85 305.79 2117.52 297.95 C 2122.63 281.98 2128.80 266.29 2134.30 250.42 Z" />
<path fill="#198754" stroke="#198754" stroke-width="0.09375" opacity="1.00" d=" M 2968.54 259.46 C 2972.30 260.36 2976.23 261.26 2979.42 263.62 C 2984.35 267.13 2987.17 272.66 2990.39 277.64 C 2989.42 277.90 2987.47 278.44 2986.50 278.70 C 2986.20 276.93 2985.95 275.16 2985.71 273.39 C 2981.75 272.34 2977.56 271.34 2974.39 268.61 C 2971.56 266.21 2969.94 262.79 2968.54 259.46 Z" />
<path fill="#198754" stroke="#198754" stroke-width="0.09375" opacity="1.00" d=" M 2942.09 269.07 C 2946.83 268.32 2951.91 267.61 2956.48 269.63 C 2962.97 272.14 2967.23 278.02 2970.59 283.85 C 2969.87 284.21 2968.43 284.93 2967.71 285.30 C 2967.32 284.01 2966.99 282.73 2966.69 281.45 C 2961.73 281.46 2956.45 281.51 2952.08 278.87 C 2947.83 276.66 2944.99 272.71 2942.09 269.07 Z" />
<path fill="#198754" stroke="#198754" stroke-width="0.09375" opacity="1.00" d=" M 2590.24 440.99 C 2582.39 383.64 2591.33 324.29 2614.77 271.44 C 2614.75 284.95 2613.96 298.48 2614.91 311.98 C 2615.06 319.46 2616.82 327.34 2613.63 334.46 C 2598.89 373.40 2593.95 415.63 2596.76 457.05 C 2594.22 451.87 2591.00 446.82 2590.24 440.99 Z" />
<path fill="#198754" stroke="#198754" stroke-width="0.09375" opacity="1.00" d=" M 2234.68 275.71 C 2244.17 276.72 2253.63 278.36 2262.81 281.03 C 2268.41 282.74 2274.10 284.63 2278.93 288.07 C 2284.24 291.95 2287.23 298.46 2287.35 304.98 C 2287.56 313.97 2285.71 323.65 2279.53 330.53 C 2274.11 336.49 2265.80 338.69 2257.99 338.64 C 2249.56 338.56 2241.25 336.95 2232.92 335.83 C 2235.78 319.27 2238.48 302.67 2241.43 286.12 C 2249.42 287.18 2257.42 288.48 2265.12 290.95 C 2269.99 292.57 2274.87 294.74 2278.45 298.55 C 2281.14 301.14 2282.76 304.58 2285.26 307.35 C 2283.74 299.69 2278.23 292.96 2270.98 290.06 C 2260.81 285.89 2249.82 284.15 2238.95 283.04 C 2235.97 300.45 2233.08 317.87 2230.04 335.26 C 2228.24 334.98 2226.46 334.70 2224.72 334.42 C 2227.93 314.84 2231.37 295.29 2234.68 275.71 Z" />
<path fill="#198754" stroke="#198754" stroke-width="0.09375" opacity="1.00" d=" M 2992.65 280.81 C 2995.46 284.30 2998.11 288.07 2999.29 292.46 C 3000.79 298.58 2999.38 305.18 2996.01 310.43 C 2991.56 306.16 2988.86 300.18 2988.94 293.99 C 2988.76 289.30 2990.90 285.02 2992.65 280.81 Z" />
<path fill="#198754" stroke="#198754" stroke-width="0.09375" opacity="1.00" d=" M 2921.63 286.41 C 2926.78 284.66 2932.34 283.00 2937.81 284.40 C 2945.26 286.27 2951.71 291.83 2954.93 298.77 C 2952.10 297.69 2950.24 295.35 2948.58 292.98 C 2939.27 295.15 2928.33 293.81 2921.63 286.41 Z" />
<path fill="#198754" stroke="#198754" stroke-width="0.09375" opacity="1.00" d=" M 2981.15 286.95 C 2983.20 285.75 2984.14 289.96 2982.12 290.29 C 2980.75 289.98 2980.00 287.89 2981.15 286.95 Z" />
<path fill="#198754" stroke="#198754" stroke-width="0.09375" opacity="1.00" d=" M 2968.90 296.02 C 2969.82 293.30 2971.54 290.96 2973.15 288.60 C 2975.93 292.92 2978.41 297.74 2978.46 303.00 C 2978.75 308.70 2976.09 313.95 2973.22 318.68 C 2968.38 312.33 2966.20 303.71 2968.90 296.02 Z" />
<path fill="#ffffff" stroke="#ffffff" stroke-width="0.09375" opacity="1.00" d=" M 2311.68 296.39 C 2316.34 298.91 2318.29 304.40 2319.68 309.22 C 2321.96 319.76 2319.77 331.07 2314.47 340.38 C 2309.23 348.86 2300.86 355.57 2291.14 358.08 C 2282.11 360.56 2272.58 360.02 2263.45 358.46 C 2239.53 354.44 2215.61 350.34 2191.69 346.33 C 2191.37 345.54 2190.75 343.96 2190.43 343.17 C 2211.95 346.77 2233.47 350.45 2254.99 354.09 C 2264.57 355.62 2274.27 357.10 2284.01 356.35 C 2295.31 355.26 2306.38 349.07 2312.05 339.03 C 2317.33 329.43 2319.28 317.64 2315.91 307.07 C 2314.82 303.38 2312.70 300.10 2311.68 296.39 Z" />
<path fill="#198754" stroke="#198754" stroke-width="0.09375" opacity="1.00" d=" M 2952.11 329.07 C 2948.44 319.54 2950.00 308.18 2955.64 299.75 C 2957.82 304.16 2959.62 308.99 2959.14 314.00 C 2958.78 319.73 2955.66 324.76 2952.11 329.07 Z" />
<path fill="#198754" stroke="#198754" stroke-width="0.09375" opacity="1.00" d=" M 2923.13 315.12 C 2927.58 309.66 2934.56 307.39 2941.13 305.60 C 2940.30 312.17 2938.36 318.86 2933.91 323.91 C 2929.30 329.13 2922.57 331.74 2915.98 333.34 C 2916.78 326.81 2918.69 320.15 2923.13 315.12 Z" />
<path fill="#198754" stroke="#198754" stroke-width="0.09375" opacity="1.00" d=" M 2639.56 337.54 C 2658.42 323.83 2680.11 314.66 2702.09 307.23 C 2738.56 344.87 2774.97 382.57 2811.48 420.17 C 2807.90 459.56 2804.22 498.93 2800.64 538.32 C 2800.10 540.33 2801.03 543.60 2798.84 544.65 C 2764.07 556.26 2729.31 567.89 2694.50 579.37 C 2691.31 580.42 2689.34 576.55 2686.90 575.15 C 2676.21 566.57 2666.66 556.73 2657.13 546.91 C 2646.47 534.51 2635.51 522.18 2627.02 508.15 C 2611.93 454.73 2613.61 396.64 2632.19 344.30 C 2633.72 341.22 2636.93 339.58 2639.56 337.54 Z" />
<path fill="#198754" stroke="#198754" stroke-width="0.09375" opacity="1.00" d=" M 3045.02 519.23 C 3083.00 515.70 3120.98 512.22 3158.96 508.75 C 3160.86 528.51 3162.47 548.30 3164.32 568.07 C 3165.15 571.52 3162.16 573.93 3160.51 576.56 C 3142.91 601.44 3122.95 624.98 3098.84 643.82 C 3084.52 655.27 3067.60 663.31 3049.91 667.98 C 3037.35 671.56 3024.58 674.32 3011.72 676.51 C 2998.46 678.64 2985.27 681.31 2971.85 682.09 C 2966.21 658.35 2960.56 634.61 2954.76 610.91 C 2982.35 582.12 3010.10 553.48 3037.65 524.66 C 3039.84 522.59 3041.69 519.46 3045.02 519.23 Z" />
<path fill="#198754" stroke="#198754" stroke-width="0.09375" opacity="1.00" d=" M 2807.60 563.49 C 2810.45 562.18 2813.17 564.29 2815.80 565.26 C 2855.53 582.47 2895.23 599.75 2934.99 616.87 C 2940.56 640.51 2946.27 664.12 2951.94 687.74 C 2936.58 696.96 2918.58 700.20 2901.15 703.02 C 2887.68 705.14 2874.08 706.24 2860.51 707.32 C 2854.12 707.68 2847.69 708.51 2841.33 707.68 C 2793.22 698.32 2747.21 677.71 2708.78 647.23 C 2707.09 645.73 2704.30 644.62 2704.55 641.95 C 2703.64 627.61 2702.85 613.27 2701.88 598.94 C 2737.11 587.10 2772.35 575.29 2807.60 563.49 Z" />
<path fill="#FFFFFF" stroke="#FFFFFF" stroke-width="0.09375" opacity="1.00" d=" M 126.93 3762.04 C 130.99 3761.94 135.05 3761.94 139.10 3762.07 C 139.46 3766.32 139.52 3770.62 139.17 3774.91 C 135.05 3775.00 130.92 3775.01 126.80 3774.94 C 126.46 3770.63 126.57 3766.31 126.93 3762.04 Z" />
<path fill="#FFFFFF" stroke="#FFFFFF" stroke-width="0.09375" opacity="1.00" d=" M 178.92 3762.08 C 213.31 3761.94 247.71 3761.88 282.10 3762.11 C 282.47 3766.34 282.52 3770.61 282.17 3774.87 C 247.72 3775.10 213.25 3775.05 178.80 3774.90 C 178.47 3770.62 178.57 3766.32 178.92 3762.08 Z" />
<path fill="#FFFFFF" stroke="#FFFFFF" stroke-width="0.09375" opacity="1.00" d=" M 321.93 3762.04 C 325.98 3761.94 330.05 3761.95 334.11 3762.08 C 334.46 3766.33 334.52 3770.62 334.17 3774.91 C 330.05 3775.00 325.93 3775.01 321.81 3774.93 C 321.46 3770.63 321.57 3766.31 321.93 3762.04 Z" />
<path fill="#FFFFFF" stroke="#FFFFFF" stroke-width="0.09375" opacity="1.00" d=" M 373.92 3762.08 C 408.31 3761.94 442.71 3761.88 477.10 3762.10 C 477.46 3766.33 477.52 3770.61 477.17 3774.87 C 442.72 3775.10 408.26 3775.05 373.80 3774.90 C 373.46 3770.62 373.57 3766.32 373.92 3762.08 Z" />
<path fill="#FFFFFF" stroke="#FFFFFF" stroke-width="0.09375" opacity="1.00" d=" M 516.92 3762.04 C 520.98 3761.94 525.04 3761.95 529.11 3762.07 C 529.46 3766.32 529.52 3770.62 529.17 3774.90 C 525.04 3775.00 520.92 3775.01 516.80 3774.94 C 516.46 3770.63 516.57 3766.31 516.92 3762.04 Z" />
<path fill="#FFFFFF" stroke="#FFFFFF" stroke-width="0.09375" opacity="1.00" d=" M 568.92 3762.07 C 603.31 3761.94 637.71 3761.89 672.10 3762.10 C 672.46 3766.33 672.51 3770.61 672.17 3774.87 C 637.72 3775.10 603.26 3775.05 568.80 3774.90 C 568.47 3770.62 568.57 3766.32 568.92 3762.07 Z" />
<path fill="#FFFFFF" stroke="#FFFFFF" stroke-width="0.09375" opacity="1.00" d=" M 711.92 3762.04 C 715.98 3761.94 720.04 3761.95 724.11 3762.07 C 724.46 3766.33 724.52 3770.62 724.17 3774.90 C 720.04 3775.00 715.92 3775.00 711.80 3774.93 C 711.47 3770.63 711.57 3766.31 711.92 3762.04 Z" />
<path fill="#FFFFFF" stroke="#FFFFFF" stroke-width="0.09375" opacity="1.00" d=" M 763.92 3762.07 C 798.32 3761.95 832.71 3761.88 867.11 3762.10 C 867.46 3766.33 867.51 3770.61 867.17 3774.87 C 832.72 3775.11 798.26 3775.05 763.81 3774.90 C 763.46 3770.62 763.57 3766.32 763.92 3762.07 Z" />
<path fill="#FFFFFF" stroke="#FFFFFF" stroke-width="0.09375" opacity="1.00" d=" M 906.92 3762.04 C 910.98 3761.94 915.04 3761.95 919.11 3762.07 C 919.46 3766.33 919.52 3770.62 919.17 3774.90 C 915.04 3775.00 910.92 3775.01 906.80 3774.94 C 906.47 3770.63 906.57 3766.31 906.92 3762.04 Z" />
<path fill="#FFFFFF" stroke="#FFFFFF" stroke-width="0.09375" opacity="1.00" d=" M 958.92 3762.08 C 993.31 3761.94 1027.71 3761.88 1062.11 3762.11 C 1062.46 3766.34 1062.52 3770.61 1062.17 3774.86 C 1027.72 3775.12 993.25 3775.04 958.80 3774.90 C 958.47 3770.62 958.57 3766.32 958.92 3762.08 Z" />
<path fill="#FFFFFF" stroke="#FFFFFF" stroke-width="0.09375" opacity="1.00" d=" M 1101.92 3762.04 C 1105.98 3761.94 1110.04 3761.95 1114.10 3762.07 C 1114.46 3766.33 1114.51 3770.62 1114.17 3774.91 C 1110.04 3775.00 1105.92 3775.01 1101.80 3774.94 C 1101.46 3770.63 1101.56 3766.31 1101.92 3762.04 Z" />
<path fill="#FFFFFF" stroke="#FFFFFF" stroke-width="0.09375" opacity="1.00" d=" M 1153.93 3762.07 C 1188.32 3761.95 1222.71 3761.88 1257.11 3762.11 C 1257.46 3766.34 1257.52 3770.61 1257.17 3774.87 C 1222.72 3775.11 1188.25 3775.05 1153.80 3774.90 C 1153.46 3770.62 1153.57 3766.32 1153.93 3762.07 Z" />
<path fill="#FFFFFF" stroke="#FFFFFF" stroke-width="0.09375" opacity="1.00" d=" M 1296.92 3762.04 C 1300.97 3761.94 1305.04 3761.94 1309.11 3762.07 C 1309.46 3766.33 1309.52 3770.62 1309.17 3774.90 C 1305.04 3775.00 1300.92 3775.01 1296.81 3774.94 C 1296.46 3770.63 1296.56 3766.31 1296.92 3762.04 Z" />
<path fill="#FFFFFF" stroke="#FFFFFF" stroke-width="0.09375" opacity="1.00" d=" M 1348.92 3762.08 C 1383.31 3761.94 1417.71 3761.88 1452.10 3762.11 C 1452.46 3766.34 1452.52 3770.61 1452.17 3774.87 C 1417.71 3775.11 1383.25 3775.05 1348.80 3774.90 C 1348.46 3770.62 1348.57 3766.32 1348.92 3762.08 Z" />
<path fill="#FFFFFF" stroke="#FFFFFF" stroke-width="0.09375" opacity="1.00" d=" M 1491.92 3762.04 C 1495.97 3761.94 1500.04 3761.95 1504.11 3762.07 C 1504.46 3766.32 1504.52 3770.62 1504.17 3774.90 C 1500.04 3775.00 1495.92 3775.01 1491.80 3774.94 C 1491.46 3770.63 1491.56 3766.31 1491.92 3762.04 Z" />
<path fill="#FFFFFF" stroke="#FFFFFF" stroke-width="0.09375" opacity="1.00" d=" M 1543.92 3762.08 C 1578.32 3761.94 1612.72 3761.88 1647.11 3762.10 C 1647.46 3766.33 1647.52 3770.61 1647.17 3774.87 C 1612.72 3775.11 1578.25 3775.04 1543.80 3774.90 C 1543.46 3770.62 1543.57 3766.32 1543.92 3762.08 Z" />
<path fill="#FFFFFF" stroke="#FFFFFF" stroke-width="0.09375" opacity="1.00" d=" M 1686.92 3762.04 C 1690.97 3761.94 1695.04 3761.95 1699.10 3762.07 C 1699.46 3766.33 1699.51 3770.62 1699.17 3774.91 C 1695.04 3775.00 1690.92 3775.01 1686.80 3774.94 C 1686.46 3770.63 1686.56 3766.31 1686.92 3762.04 Z" />
<path fill="#FFFFFF" stroke="#FFFFFF" stroke-width="0.09375" opacity="1.00" d=" M 1738.92 3762.08 C 1773.31 3761.94 1807.71 3761.89 1842.10 3762.10 C 1842.46 3766.33 1842.52 3770.61 1842.17 3774.87 C 1807.72 3775.11 1773.25 3775.05 1738.80 3774.90 C 1738.46 3770.62 1738.56 3766.32 1738.92 3762.08 Z" />
<path fill="#FFFFFF" stroke="#FFFFFF" stroke-width="0.09375" opacity="1.00" d=" M 1881.92 3762.04 C 1885.97 3761.94 1890.04 3761.94 1894.11 3762.07 C 1894.45 3766.33 1894.51 3770.62 1894.17 3774.91 C 1890.04 3775.00 1885.91 3775.01 1881.80 3774.93 C 1881.46 3770.63 1881.56 3766.31 1881.92 3762.04 Z" />
<path fill="#FFFFFF" stroke="#FFFFFF" stroke-width="0.09375" opacity="1.00" d=" M 1933.92 3762.07 C 1968.31 3761.94 2002.71 3761.88 2037.10 3762.10 C 2037.46 3766.33 2037.51 3770.61 2037.17 3774.87 C 2002.71 3775.10 1968.25 3775.06 1933.80 3774.89 C 1933.46 3770.61 1933.56 3766.32 1933.92 3762.07 Z" />
<path fill="#FFFFFF" stroke="#FFFFFF" stroke-width="0.09375" opacity="1.00" d=" M 2076.92 3762.04 C 2080.97 3761.94 2085.03 3761.95 2089.11 3762.07 C 2089.46 3766.33 2089.51 3770.62 2089.17 3774.90 C 2085.04 3775.00 2080.91 3775.01 2076.80 3774.94 C 2076.46 3770.63 2076.56 3766.31 2076.92 3762.04 Z" />
<path fill="#FFFFFF" stroke="#FFFFFF" stroke-width="0.09375" opacity="1.00" d=" M 2128.93 3762.08 C 2163.32 3761.94 2197.71 3761.88 2232.10 3762.11 C 2232.46 3766.34 2232.51 3770.61 2232.17 3774.87 C 2197.71 3775.11 2163.25 3775.04 2128.80 3774.90 C 2128.46 3770.62 2128.56 3766.32 2128.93 3762.08 Z" />
<path fill="#FFFFFF" stroke="#FFFFFF" stroke-width="0.09375" opacity="1.00" d=" M 2271.93 3762.04 C 2275.97 3761.94 2280.03 3761.95 2284.11 3762.07 C 2284.45 3766.33 2284.51 3770.62 2284.17 3774.90 C 2280.04 3775.00 2275.91 3775.01 2271.80 3774.94 C 2271.46 3770.63 2271.56 3766.31 2271.93 3762.04 Z" />
<path fill="#FFFFFF" stroke="#FFFFFF" stroke-width="0.09375" opacity="1.00" d=" M 2323.92 3762.07 C 2358.31 3761.94 2392.71 3761.88 2427.10 3762.10 C 2427.45 3766.33 2427.51 3770.61 2427.17 3774.87 C 2392.72 3775.10 2358.25 3775.06 2323.80 3774.89 C 2323.46 3770.61 2323.56 3766.32 2323.92 3762.07 Z" />
<path fill="#FFFFFF" stroke="#FFFFFF" stroke-width="0.09375" opacity="1.00" d=" M 2466.89 3762.01 C 2470.94 3761.94 2475.02 3761.95 2479.10 3762.07 C 2479.45 3766.32 2479.51 3770.62 2479.17 3774.90 C 2475.06 3774.99 2470.97 3775.02 2466.88 3774.99 C 2466.74 3770.64 2466.74 3766.31 2466.89 3762.01 Z" />
<path fill="#FFFFFF" stroke="#FFFFFF" stroke-width="0.09375" opacity="1.00" d=" M 2518.89 3762.05 C 2544.59 3761.89 2570.29 3762.03 2596.00 3761.99 C 2604.86 3762.09 2613.75 3761.62 2622.62 3762.33 C 2622.64 3766.47 2622.66 3770.63 2622.71 3774.80 C 2588.10 3775.24 2553.49 3774.93 2518.89 3774.95 C 2518.74 3770.63 2518.74 3766.33 2518.89 3762.05 Z" />
<path fill="#FFFFFF" stroke="#FFFFFF" stroke-width="0.09375" opacity="1.00" d=" M 2661.88 3761.98 C 2666.12 3761.89 2670.37 3761.96 2674.62 3762.31 C 2674.65 3766.46 2674.66 3770.63 2674.71 3774.81 C 2670.43 3774.98 2666.15 3775.03 2661.89 3775.00 C 2661.74 3770.64 2661.74 3766.30 2661.88 3761.98 Z" />
<path fill="#FFFFFF" stroke="#FFFFFF" stroke-width="0.09375" opacity="1.00" d=" M 2713.89 3762.05 C 2739.59 3761.89 2765.29 3762.03 2791.00 3761.99 C 2799.86 3762.09 2808.75 3761.63 2817.62 3762.32 C 2817.64 3766.46 2817.66 3770.63 2817.71 3774.79 C 2783.10 3775.24 2748.49 3774.93 2713.88 3774.95 C 2713.74 3770.63 2713.74 3766.33 2713.89 3762.05 Z" />
<path fill="#FFFFFF" stroke="#FFFFFF" stroke-width="0.09375" opacity="1.00" d=" M 2856.88 3761.99 C 2861.11 3761.89 2865.37 3761.96 2869.62 3762.31 C 2869.64 3766.46 2869.66 3770.63 2869.71 3774.81 C 2865.42 3774.98 2861.15 3775.03 2856.89 3775.00 C 2856.74 3770.64 2856.74 3766.30 2856.88 3761.99 Z" />
<path fill="#FFFFFF" stroke="#FFFFFF" stroke-width="0.09375" opacity="1.00" d=" M 2908.89 3762.05 C 2934.59 3761.89 2960.29 3762.03 2986.00 3761.99 C 2994.86 3762.10 3003.75 3761.62 3012.62 3762.32 C 3012.64 3766.47 3012.66 3770.63 3012.70 3774.80 C 2978.10 3775.23 2943.49 3774.94 2908.89 3774.95 C 2908.74 3770.63 2908.74 3766.33 2908.89 3762.05 Z" />
<path fill="#FFFFFF" stroke="#FFFFFF" stroke-width="0.09375" opacity="1.00" d=" M 3051.89 3761.98 C 3056.11 3761.89 3060.37 3761.96 3064.62 3762.31 C 3064.64 3766.46 3064.66 3770.63 3064.71 3774.81 C 3060.42 3774.98 3056.15 3775.03 3051.89 3775.00 C 3051.74 3770.64 3051.74 3766.30 3051.89 3761.98 Z" />
<path fill="#FFFFFF" stroke="#FFFFFF" stroke-width="0.09375" opacity="1.00" d=" M 3103.89 3762.04 C 3133.26 3761.89 3162.63 3762.05 3192.00 3761.97 C 3197.20 3761.87 3202.41 3761.92 3207.62 3762.32 C 3207.64 3766.46 3207.66 3770.62 3207.71 3774.79 C 3173.10 3775.24 3138.49 3774.93 3103.89 3774.95 C 3103.73 3770.63 3103.73 3766.33 3103.89 3762.04 Z" />
<path fill="#FFFFFF" stroke="#FFFFFF" stroke-width="0.09375" opacity="1.00" d=" M 3246.88 3761.98 C 3251.11 3761.89 3255.37 3761.96 3259.62 3762.31 C 3259.65 3766.46 3259.66 3770.63 3259.71 3774.81 C 3255.42 3774.98 3251.15 3775.03 3246.89 3775.00 C 3246.74 3770.64 3246.73 3766.30 3246.88 3761.98 Z" />
<path fill="#FFFFFF" stroke="#FFFFFF" stroke-width="0.09375" opacity="1.00" d=" M 3280.04 3780.88 C 3284.33 3780.72 3288.63 3780.72 3292.96 3780.88 C 3293.03 3815.29 3293.03 3849.70 3292.95 3884.12 C 3288.63 3884.24 3284.33 3884.24 3280.05 3884.12 C 3279.96 3849.71 3279.97 3815.29 3280.04 3780.88 Z" />
<path fill="#FFFFFF" stroke="#FFFFFF" stroke-width="0.09375" opacity="1.00" d=" M 110.04 3797.88 C 114.34 3797.72 118.65 3797.72 122.96 3797.88 C 123.03 3832.29 123.04 3866.71 122.95 3901.12 C 118.65 3901.24 114.35 3901.23 110.05 3901.12 C 109.95 3866.70 109.98 3832.29 110.04 3797.88 Z" />
<path fill="#FFFFFF" stroke="#FFFFFF" stroke-width="0.09375" opacity="1.00" d=" M 3280.01 3923.88 C 3284.32 3923.72 3288.65 3923.72 3292.99 3923.88 C 3293.02 3927.94 3293.02 3932.02 3292.98 3936.12 C 3288.65 3936.24 3284.33 3936.24 3280.03 3936.12 C 3279.95 3932.02 3279.95 3927.94 3280.01 3923.88 Z" />
<path fill="#FFFFFF" stroke="#FFFFFF" stroke-width="0.09375" opacity="1.00" d=" M 110.01 3940.88 C 114.34 3940.72 118.66 3940.72 122.99 3940.88 C 123.04 3944.94 123.03 3949.02 122.98 3953.12 C 118.66 3953.23 114.34 3953.24 110.02 3953.12 C 109.97 3949.02 109.96 3944.94 110.01 3940.88 Z" />
<path fill="#FFFFFF" stroke="#FFFFFF" stroke-width="0.09375" opacity="1.00" d=" M 3280.04 3975.88 C 3284.33 3975.73 3288.64 3975.72 3292.96 3975.88 C 3293.02 4010.29 3293.04 4044.70 3292.95 4079.12 C 3288.63 4079.23 3284.33 4079.23 3280.05 4079.12 C 3279.96 4044.71 3279.97 4010.29 3280.04 3975.88 Z" />
<path fill="#FFFFFF" stroke="#FFFFFF" stroke-width="0.09375" opacity="1.00" d=" M 110.04 3992.88 C 114.35 3992.72 118.65 3992.72 122.96 3992.88 C 123.02 4027.29 123.04 4061.70 122.95 4096.12 C 118.65 4096.23 114.35 4096.24 110.05 4096.12 C 109.96 4061.71 109.97 4027.29 110.04 3992.88 Z" />
<path fill="#FFFFFF" stroke="#FFFFFF" stroke-width="0.09375" opacity="1.00" d=" M 3280.01 4118.88 C 3284.32 4118.72 3288.64 4118.72 3292.98 4118.88 C 3293.01 4122.94 3293.01 4127.02 3292.98 4131.12 C 3288.64 4131.23 3284.32 4131.23 3280.02 4131.12 C 3279.95 4127.02 3279.95 4122.94 3280.01 4118.88 Z" />
<path fill="#FFFFFF" stroke="#FFFFFF" stroke-width="0.09375" opacity="1.00" d=" M 110.01 4135.88 C 114.34 4135.72 118.66 4135.72 122.99 4135.87 C 123.04 4139.93 123.03 4144.02 122.98 4148.12 C 118.66 4148.24 114.34 4148.24 110.03 4148.12 C 109.97 4144.02 109.96 4139.94 110.01 4135.88 Z" />
<path fill="#FFFFFF" stroke="#FFFFFF" stroke-width="0.09375" opacity="1.00" d=" M 3280.04 4170.88 C 3284.33 4170.72 3288.63 4170.72 3292.96 4170.88 C 3293.03 4205.29 3293.03 4239.71 3292.95 4274.12 C 3288.63 4274.23 3284.33 4274.23 3280.05 4274.12 C 3279.96 4239.70 3279.97 4205.29 3280.04 4170.88 Z" />
<path fill="#FFFFFF" stroke="#FFFFFF" stroke-width="0.09375" opacity="1.00" d=" M 110.04 4187.88 C 114.34 4187.72 118.65 4187.72 122.96 4187.88 C 123.03 4222.29 123.04 4256.70 122.95 4291.12 C 118.65 4291.23 114.35 4291.23 110.05 4291.12 C 109.96 4256.70 109.98 4222.29 110.04 4187.88 Z" />
<path fill="#FFFFFF" stroke="#FFFFFF" stroke-width="0.09375" opacity="1.00" d=" M 3280.01 4313.88 C 3284.32 4313.72 3288.65 4313.72 3292.99 4313.88 C 3293.02 4317.93 3293.02 4322.02 3292.98 4326.12 C 3288.64 4326.23 3284.32 4326.23 3280.02 4326.12 C 3279.95 4322.02 3279.95 4317.94 3280.01 4313.88 Z" />
<path fill="#FFFFFF" stroke="#FFFFFF" stroke-width="0.09375" opacity="1.00" d=" M 110.01 4330.88 C 114.34 4330.72 118.66 4330.72 122.99 4330.88 C 123.03 4334.94 123.03 4339.02 122.97 4343.12 C 118.66 4343.23 114.34 4343.23 110.02 4343.12 C 109.96 4339.01 109.96 4334.93 110.01 4330.88 Z" />
<path fill="#FFFFFF" stroke="#FFFFFF" stroke-width="0.09375" opacity="1.00" d=" M 3280.04 4365.88 C 3284.33 4365.72 3288.64 4365.72 3292.96 4365.88 C 3293.03 4400.29 3293.04 4434.71 3292.95 4469.12 C 3288.63 4469.23 3284.33 4469.23 3280.05 4469.12 C 3279.95 4434.70 3279.97 4400.29 3280.04 4365.88 Z" />
<path fill="#FFFFFF" stroke="#FFFFFF" stroke-width="0.09375" opacity="1.00" d=" M 110.04 4382.88 C 114.34 4382.72 118.65 4382.72 122.96 4382.88 C 123.02 4417.29 123.04 4451.71 122.95 4486.12 C 118.65 4486.23 114.35 4486.23 110.05 4486.12 C 109.96 4451.70 109.98 4417.29 110.04 4382.88 Z" />
<path fill="#FFFFFF" stroke="#FFFFFF" stroke-width="0.09375" opacity="1.00" d=" M 131.93 4480.04 C 135.98 4479.94 140.05 4479.95 144.11 4480.08 C 144.47 4484.33 144.52 4488.62 144.17 4492.90 C 140.05 4493.00 135.92 4493.01 131.80 4492.94 C 131.47 4488.63 131.57 4484.31 131.93 4480.04 Z" />
<path fill="#FFFFFF" stroke="#FFFFFF" stroke-width="0.09375" opacity="1.00" d=" M 183.92 4480.08 C 218.32 4479.96 252.71 4479.90 287.11 4480.11 C 287.46 4484.33 287.52 4488.60 287.17 4492.87 C 252.72 4493.11 218.25 4493.05 183.80 4492.89 C 183.47 4488.62 183.57 4484.32 183.92 4480.08 Z" />
<path fill="#FFFFFF" stroke="#FFFFFF" stroke-width="0.09375" opacity="1.00" d=" M 326.92 4480.05 C 330.98 4479.94 335.04 4479.95 339.11 4480.08 C 339.46 4484.33 339.52 4488.62 339.17 4492.91 C 335.05 4493.00 330.92 4493.00 326.80 4492.93 C 326.47 4488.63 326.57 4484.31 326.92 4480.05 Z" />
<path fill="#FFFFFF" stroke="#FFFFFF" stroke-width="0.09375" opacity="1.00" d=" M 378.92 4480.08 C 413.31 4479.95 447.71 4479.91 482.11 4480.11 C 482.46 4484.34 482.52 4488.61 482.17 4492.87 C 447.72 4493.11 413.26 4493.05 378.80 4492.90 C 378.47 4488.62 378.57 4484.32 378.92 4480.08 Z" />
<path fill="#FFFFFF" stroke="#FFFFFF" stroke-width="0.09375" opacity="1.00" d=" M 521.92 4480.05 C 525.98 4479.94 530.04 4479.95 534.11 4480.08 C 534.46 4484.33 534.52 4488.62 534.17 4492.91 C 530.05 4493.00 525.92 4493.00 521.81 4492.93 C 521.47 4488.63 521.57 4484.31 521.92 4480.05 Z" />
<path fill="#FFFFFF" stroke="#FFFFFF" stroke-width="0.09375" opacity="1.00" d=" M 573.92 4480.08 C 608.31 4479.96 642.71 4479.91 677.10 4480.11 C 677.46 4484.33 677.52 4488.61 677.17 4492.87 C 642.72 4493.11 608.25 4493.05 573.80 4492.90 C 573.46 4488.62 573.57 4484.32 573.92 4480.08 Z" />
<path fill="#FFFFFF" stroke="#FFFFFF" stroke-width="0.09375" opacity="1.00" d=" M 716.92 4480.04 C 720.98 4479.94 725.04 4479.95 729.11 4480.08 C 729.46 4484.33 729.52 4488.62 729.17 4492.90 C 725.05 4493.00 720.92 4493.00 716.80 4492.94 C 716.46 4488.63 716.57 4484.31 716.92 4480.04 Z" />
<path fill="#FFFFFF" stroke="#FFFFFF" stroke-width="0.09375" opacity="1.00" d=" M 768.92 4480.08 C 803.32 4479.97 837.71 4479.90 872.10 4480.11 C 872.46 4484.34 872.52 4488.61 872.17 4492.87 C 837.72 4493.11 803.26 4493.05 768.80 4492.90 C 768.46 4488.62 768.57 4484.32 768.92 4480.08 Z" />
<path fill="#FFFFFF" stroke="#FFFFFF" stroke-width="0.09375" opacity="1.00" d=" M 911.92 4480.05 C 915.98 4479.94 920.04 4479.95 924.11 4480.08 C 924.46 4484.33 924.52 4488.62 924.17 4492.91 C 920.04 4493.00 915.92 4493.00 911.80 4492.93 C 911.47 4488.63 911.57 4484.31 911.92 4480.05 Z" />
<path fill="#FFFFFF" stroke="#FFFFFF" stroke-width="0.09375" opacity="1.00" d=" M 963.92 4480.08 C 998.31 4479.96 1032.71 4479.90 1067.10 4480.11 C 1067.46 4484.33 1067.51 4488.61 1067.17 4492.87 C 1032.72 4493.11 998.25 4493.05 963.80 4492.89 C 963.46 4488.62 963.57 4484.32 963.92 4480.08 Z" />
<path fill="#FFFFFF" stroke="#FFFFFF" stroke-width="0.09375" opacity="1.00" d=" M 1106.92 4480.04 C 1110.98 4479.94 1115.04 4479.95 1119.11 4480.08 C 1119.46 4484.33 1119.51 4488.62 1119.17 4492.91 C 1115.04 4493.00 1110.92 4493.01 1106.80 4492.94 C 1106.46 4488.63 1106.56 4484.31 1106.92 4480.04 Z" />
<path fill="#FFFFFF" stroke="#FFFFFF" stroke-width="0.09375" opacity="1.00" d=" M 1158.92 4480.08 C 1193.31 4479.97 1227.71 4479.90 1262.10 4480.11 C 1262.46 4484.33 1262.51 4488.61 1262.17 4492.87 C 1227.72 4493.11 1193.25 4493.04 1158.80 4492.90 C 1158.46 4488.62 1158.57 4484.32 1158.92 4480.08 Z" />
<path fill="#FFFFFF" stroke="#FFFFFF" stroke-width="0.09375" opacity="1.00" d=" M 1301.92 4480.04 C 1305.97 4479.94 1310.04 4479.95 1314.10 4480.08 C 1314.46 4484.33 1314.51 4488.62 1314.17 4492.90 C 1310.04 4493.00 1305.92 4493.00 1301.80 4492.94 C 1301.47 4488.63 1301.57 4484.31 1301.92 4480.04 Z" />
<path fill="#FFFFFF" stroke="#FFFFFF" stroke-width="0.09375" opacity="1.00" d=" M 1353.92 4480.08 C 1388.31 4479.96 1422.71 4479.90 1457.11 4480.11 C 1457.46 4484.33 1457.52 4488.60 1457.17 4492.86 C 1422.72 4493.11 1388.26 4493.05 1353.80 4492.90 C 1353.47 4488.62 1353.57 4484.32 1353.92 4480.08 Z" />
<path fill="#FFFFFF" stroke="#FFFFFF" stroke-width="0.09375" opacity="1.00" d=" M 1496.92 4480.05 C 1500.98 4479.94 1505.04 4479.95 1509.11 4480.08 C 1509.46 4484.33 1509.51 4488.62 1509.17 4492.91 C 1505.04 4493.00 1500.91 4493.01 1496.80 4492.94 C 1496.46 4488.63 1496.57 4484.31 1496.92 4480.05 Z" />
<path fill="#FFFFFF" stroke="#FFFFFF" stroke-width="0.09375" opacity="1.00" d=" M 1548.92 4480.08 C 1583.31 4479.96 1617.71 4479.91 1652.11 4480.11 C 1652.46 4484.33 1652.51 4488.61 1652.17 4492.87 C 1617.72 4493.11 1583.25 4493.05 1548.80 4492.90 C 1548.46 4488.62 1548.56 4484.32 1548.92 4480.08 Z" />
<path fill="#FFFFFF" stroke="#FFFFFF" stroke-width="0.09375" opacity="1.00" d=" M 1691.92 4480.05 C 1695.97 4479.95 1700.04 4479.95 1704.11 4480.08 C 1704.46 4484.33 1704.51 4488.62 1704.17 4492.90 C 1700.04 4493.00 1695.92 4493.00 1691.81 4492.94 C 1691.46 4488.63 1691.56 4484.31 1691.92 4480.05 Z" />
<path fill="#FFFFFF" stroke="#FFFFFF" stroke-width="0.09375" opacity="1.00" d=" M 1743.92 4480.08 C 1778.31 4479.97 1812.71 4479.90 1847.10 4480.11 C 1847.46 4484.33 1847.51 4488.61 1847.17 4492.87 C 1812.72 4493.11 1778.25 4493.04 1743.80 4492.90 C 1743.46 4488.62 1743.56 4484.32 1743.92 4480.08 Z" />
<path fill="#FFFFFF" stroke="#FFFFFF" stroke-width="0.09375" opacity="1.00" d=" M 1886.93 4480.05 C 1890.98 4479.94 1895.04 4479.95 1899.11 4480.08 C 1899.46 4484.33 1899.51 4488.62 1899.17 4492.90 C 1895.04 4493.00 1890.92 4493.00 1886.80 4492.94 C 1886.46 4488.63 1886.56 4484.31 1886.93 4480.05 Z" />
<path fill="#FFFFFF" stroke="#FFFFFF" stroke-width="0.09375" opacity="1.00" d=" M 1938.92 4480.08 C 1973.31 4479.97 2007.71 4479.90 2042.10 4480.11 C 2042.45 4484.34 2042.51 4488.61 2042.17 4492.87 C 2007.71 4493.11 1973.25 4493.05 1938.80 4492.90 C 1938.46 4488.62 1938.56 4484.32 1938.92 4480.08 Z" />
<path fill="#FFFFFF" stroke="#FFFFFF" stroke-width="0.09375" opacity="1.00" d=" M 2081.92 4480.04 C 2085.97 4479.94 2090.03 4479.95 2094.10 4480.08 C 2094.45 4484.33 2094.51 4488.62 2094.17 4492.90 C 2090.04 4493.00 2085.91 4493.01 2081.80 4492.94 C 2081.46 4488.63 2081.56 4484.31 2081.92 4480.04 Z" />
<path fill="#FFFFFF" stroke="#FFFFFF" stroke-width="0.09375" opacity="1.00" d=" M 2133.92 4480.08 C 2168.31 4479.95 2202.71 4479.91 2237.11 4480.10 C 2237.46 4484.33 2237.52 4488.61 2237.17 4492.87 C 2202.72 4493.11 2168.26 4493.05 2133.80 4492.90 C 2133.46 4488.62 2133.56 4484.32 2133.92 4480.08 Z" />
<path fill="#FFFFFF" stroke="#FFFFFF" stroke-width="0.09375" opacity="1.00" d=" M 2276.92 4480.05 C 2280.97 4479.95 2285.03 4479.95 2289.11 4480.08 C 2289.45 4484.33 2289.51 4488.62 2289.17 4492.91 C 2285.03 4493.00 2280.91 4493.00 2276.80 4492.93 C 2276.46 4488.63 2276.56 4484.31 2276.92 4480.05 Z" />
<path fill="#FFFFFF" stroke="#FFFFFF" stroke-width="0.09375" opacity="1.00" d=" M 2328.92 4480.08 C 2363.32 4479.96 2397.72 4479.90 2432.11 4480.11 C 2432.45 4484.34 2432.51 4488.61 2432.17 4492.87 C 2397.71 4493.11 2363.25 4493.05 2328.80 4492.90 C 2328.46 4488.62 2328.56 4484.32 2328.92 4480.08 Z" />
<path fill="#FFFFFF" stroke="#FFFFFF" stroke-width="0.09375" opacity="1.00" d=" M 2471.92 4480.05 C 2475.97 4479.94 2480.03 4479.95 2484.11 4480.08 C 2484.45 4484.33 2484.51 4488.62 2484.17 4492.91 C 2480.04 4493.00 2475.91 4493.00 2471.80 4492.93 C 2471.46 4488.63 2471.56 4484.31 2471.92 4480.05 Z" />
<path fill="#FFFFFF" stroke="#FFFFFF" stroke-width="0.09375" opacity="1.00" d=" M 2523.92 4480.08 C 2558.31 4479.97 2592.71 4479.90 2627.10 4480.11 C 2627.45 4484.33 2627.51 4488.61 2627.17 4492.87 C 2592.71 4493.11 2558.25 4493.05 2523.80 4492.90 C 2523.46 4488.62 2523.56 4484.32 2523.92 4480.08 Z" />
<path fill="#FFFFFF" stroke="#FFFFFF" stroke-width="0.09375" opacity="1.00" d=" M 2666.92 4480.05 C 2670.97 4479.94 2675.03 4479.95 2679.11 4480.08 C 2679.45 4484.33 2679.51 4488.62 2679.17 4492.90 C 2675.04 4493.00 2670.91 4493.00 2666.81 4492.94 C 2666.46 4488.63 2666.56 4484.31 2666.92 4480.05 Z" />
<path fill="#FFFFFF" stroke="#FFFFFF" stroke-width="0.09375" opacity="1.00" d=" M 2718.93 4480.08 C 2753.32 4479.96 2787.72 4479.90 2822.11 4480.11 C 2822.45 4484.33 2822.51 4488.61 2822.17 4492.87 C 2787.71 4493.11 2753.25 4493.05 2718.81 4492.90 C 2718.46 4488.62 2718.56 4484.32 2718.93 4480.08 Z" />
<path fill="#FFFFFF" stroke="#FFFFFF" stroke-width="0.09375" opacity="1.00" d=" M 2861.92 4480.04 C 2865.97 4479.94 2870.03 4479.95 2874.11 4480.08 C 2874.45 4484.33 2874.51 4488.62 2874.17 4492.90 C 2870.04 4493.00 2865.91 4493.01 2861.80 4492.94 C 2861.46 4488.63 2861.55 4484.31 2861.92 4480.04 Z" />
<path fill="#FFFFFF" stroke="#FFFFFF" stroke-width="0.09375" opacity="1.00" d=" M 2913.92 4480.08 C 2948.31 4479.96 2982.71 4479.91 3017.11 4480.10 C 3017.45 4484.33 3017.51 4488.60 3017.17 4492.87 C 2982.72 4493.11 2948.26 4493.05 2913.80 4492.90 C 2913.46 4488.62 2913.56 4484.32 2913.92 4480.08 Z" />
<path fill="#FFFFFF" stroke="#FFFFFF" stroke-width="0.09375" opacity="1.00" d=" M 3056.92 4480.05 C 3060.97 4479.94 3065.03 4479.95 3069.11 4480.08 C 3069.45 4484.33 3069.51 4488.62 3069.17 4492.90 C 3065.03 4493.00 3060.91 4493.00 3056.80 4492.94 C 3056.46 4488.63 3056.55 4484.31 3056.92 4480.05 Z" />
<path fill="#FFFFFF" stroke="#FFFFFF" stroke-width="0.09375" opacity="1.00" d=" M 3108.92 4480.08 C 3143.31 4479.96 3177.71 4479.91 3212.11 4480.11 C 3212.45 4484.33 3212.51 4488.61 3212.17 4492.87 C 3177.72 4493.11 3143.25 4493.05 3108.80 4492.90 C 3108.46 4488.62 3108.55 4484.32 3108.92 4480.08 Z" />
<path fill="#FFFFFF" stroke="#FFFFFF" stroke-width="0.09375" opacity="1.00" d=" M 3251.92 4480.05 C 3255.97 4479.94 3260.03 4479.95 3264.10 4480.08 C 3264.45 4484.33 3264.51 4488.62 3264.17 4492.90 C 3260.03 4493.00 3255.91 4493.01 3251.80 4492.94 C 3251.46 4488.63 3251.56 4484.31 3251.92 4480.05 Z" />
</svg>
