<?xml version="1.0" encoding="UTF-8" ?>
<!DOCTYPE svg PUBLIC "-//W3C//DTD SVG 1.1//EN" "http://www.w3.org/Graphics/SVG/1.1/DTD/svg11.dtd">
<svg width="756pt" height="756pt" viewBox="0 0 756 756" version="1.1" xmlns="http://www.w3.org/2000/svg">
<path fill="#002060" stroke="#002060" stroke-width="0.09375" opacity="1.00" d=" M 695.89 50.58 C 708.74 39.73 716.51 24.51 726.25 11.09 C 726.08 23.00 726.38 35.36 721.84 46.60 C 719.51 52.69 715.72 58.11 711.25 62.82 C 718.45 63.44 725.57 65.42 731.86 69.03 C 736.04 71.44 739.26 75.11 742.63 78.49 C 729.78 79.62 716.81 81.08 704.59 85.46 C 717.44 84.86 730.71 85.92 742.55 91.31 C 747.36 93.36 751.05 97.15 754.98 100.47 C 734.91 101.79 713.90 101.84 695.38 110.69 C 700.21 111.14 705.16 111.29 709.81 112.86 C 715.47 114.54 720.23 118.13 725.11 121.30 C 706.23 127.01 686.43 132.23 670.50 144.41 C 663.67 149.64 659.02 157.16 656.26 165.22 C 671.20 184.80 684.57 205.64 695.39 227.79 C 713.24 263.90 724.92 303.03 729.92 343.00 C 741.21 427.68 721.20 516.07 674.76 587.76 C 633.36 652.19 571.33 703.22 499.86 730.87 C 460.06 746.44 417.52 754.85 374.81 756.00 L 358.21 756.00 C 315.50 754.84 272.96 746.43 233.16 730.85 C 160.07 702.61 97.02 649.79 55.54 583.41 C 20.71 527.94 1.76 462.92 0.00 397.52 L 0.00 382.32 C 0.91 352.54 4.95 322.82 12.72 294.03 C 33.66 215.21 82.28 144.29 147.73 95.73 C 197.84 58.04 257.94 33.84 320.16 26.11 C 379.79 18.17 441.23 25.85 497.45 47.10 C 490.04 36.27 480.79 26.92 472.06 17.18 C 482.39 17.98 492.75 18.50 503.02 19.91 C 513.89 21.53 524.98 24.38 533.91 31.09 C 540.06 35.35 544.87 41.14 549.47 46.97 C 547.23 38.14 543.34 29.88 539.80 21.52 C 546.92 24.69 554.22 27.66 560.54 32.31 C 567.02 36.82 572.37 42.72 576.97 49.09 C 573.95 43.69 570.66 38.46 567.61 33.09 C 582.76 40.29 598.52 48.51 607.91 63.01 C 616.14 74.95 618.26 90.02 616.36 104.16 C 641.06 94.20 663.89 78.28 679.37 56.36 C 684.55 49.18 688.20 41.09 691.89 33.09 C 693.74 38.78 695.81 44.51 695.89 50.58 M 490.05 25.97 C 500.87 38.26 510.61 51.80 516.67 67.12 C 521.38 78.81 523.39 91.43 523.73 103.99 C 524.18 115.00 523.26 126.40 526.96 136.98 C 530.15 146.36 537.39 153.57 544.84 159.77 C 530.22 174.82 510.75 183.76 491.02 190.00 C 478.33 193.94 467.28 205.31 466.71 219.02 C 466.35 226.58 471.44 232.80 476.94 237.34 C 478.82 241.21 480.03 245.44 482.66 248.95 C 484.52 243.07 486.68 236.67 492.08 233.09 C 499.81 228.19 508.78 225.34 517.86 224.41 C 535.07 222.33 551.89 228.18 569.05 227.92 C 587.11 228.32 606.15 224.17 620.19 212.22 C 634.96 199.95 643.25 181.89 649.04 163.98 C 651.83 154.88 656.80 146.33 664.14 140.17 C 676.17 129.88 691.33 124.43 706.06 119.27 C 698.08 117.60 689.84 118.32 681.94 120.04 C 680.82 117.95 679.72 115.86 678.62 113.77 C 685.57 107.31 693.97 102.49 703.06 99.77 C 711.72 96.89 720.84 96.04 729.79 94.57 C 715.88 91.72 701.00 91.71 687.58 96.72 C 686.15 94.78 684.73 92.85 683.32 90.90 C 693.50 79.59 708.95 75.76 723.36 73.23 C 715.99 70.00 707.47 69.09 699.71 71.43 C 698.68 69.26 697.65 67.08 696.62 64.91 C 706.60 59.06 714.30 49.37 716.90 38.02 C 711.81 44.79 706.55 51.62 699.72 56.76 C 695.19 60.41 689.71 62.54 684.48 64.96 C 685.00 63.26 685.54 61.56 686.03 59.84 C 666.95 86.92 637.77 105.49 606.53 115.53 C 609.09 104.92 610.96 93.76 608.53 82.94 C 605.89 70.18 597.36 59.30 586.79 52.00 C 592.46 64.90 595.29 78.97 594.96 93.07 C 592.59 93.42 590.23 93.79 587.87 94.10 C 585.76 87.30 583.62 80.51 581.08 73.86 C 575.66 59.47 567.54 45.17 554.15 36.84 C 555.54 41.48 556.99 46.12 557.79 50.91 C 559.30 58.96 558.76 67.19 558.81 75.33 C 549.35 60.87 541.53 44.05 526.21 34.76 C 515.32 28.37 502.40 26.93 490.05 25.97 M 281.98 50.41 C 243.74 60.22 206.66 75.61 174.02 97.98 C 168.53 102.01 163.16 106.20 157.74 110.33 C 176.08 116.90 194.60 122.95 213.07 129.15 C 271.38 96.59 339.33 80.04 406.09 86.63 C 409.01 87.35 410.84 84.48 412.97 83.03 C 427.02 71.30 441.71 60.09 458.37 52.30 C 400.99 36.79 339.66 36.05 281.98 50.41 M 327.81 112.50 C 288.64 119.18 250.83 133.41 216.80 153.88 C 213.42 155.98 209.64 157.76 207.17 160.99 C 184.45 193.31 166.55 229.82 160.28 269.11 C 201.71 311.89 243.10 354.71 284.65 397.38 C 334.58 387.58 384.58 378.15 434.56 368.60 C 444.09 342.77 453.77 317.00 463.14 291.11 C 462.00 289.41 460.91 287.69 459.81 285.97 C 458.55 295.51 452.94 303.60 446.71 310.63 C 443.42 307.04 440.45 303.17 437.75 299.12 C 435.47 308.37 429.08 315.81 422.18 322.06 C 417.50 316.53 414.32 309.83 413.51 302.59 C 411.00 307.12 407.77 311.30 403.59 314.42 C 395.47 320.70 385.13 322.89 375.13 323.92 C 375.08 312.79 376.87 300.99 383.88 291.96 C 388.85 285.31 396.36 281.20 404.11 278.63 C 393.03 277.47 383.93 269.98 377.66 261.20 C 387.33 255.22 398.93 250.92 410.36 253.90 C 406.85 249.68 403.74 245.14 400.94 240.42 C 406.45 238.26 412.05 235.88 418.05 235.61 C 424.52 235.06 430.96 237.03 436.45 240.41 C 434.23 235.56 433.12 230.33 432.15 225.11 C 439.46 225.39 447.04 225.90 453.68 229.26 C 460.52 232.45 465.33 238.60 469.22 244.87 C 469.75 245.94 470.64 246.24 471.89 245.77 C 472.39 241.97 468.61 240.01 466.53 237.50 C 459.80 230.26 457.64 219.37 460.84 210.04 C 464.51 198.46 473.69 189.34 484.64 184.41 C 459.92 159.83 435.31 135.14 410.57 110.58 C 383.13 106.65 355.10 108.04 327.81 112.50 M 636.05 206.42 C 654.40 223.76 671.21 242.80 685.05 263.96 C 691.41 272.41 695.55 282.26 701.69 290.87 C 690.64 252.63 672.56 216.57 649.39 184.25 C 645.45 191.93 641.46 199.64 636.05 206.42 M 567.03 235.25 C 547.60 235.10 527.96 227.72 508.72 233.63 C 507.95 235.76 507.08 237.87 506.54 240.08 C 507.45 242.71 511.08 243.08 512.05 245.64 C 509.04 247.17 505.90 248.42 502.83 249.82 C 487.17 292.51 471.57 335.21 455.94 377.91 C 479.01 418.38 502.26 458.75 525.25 499.27 C 566.86 495.65 608.44 491.63 650.05 487.92 C 651.78 487.63 654.11 487.93 655.13 486.13 C 661.54 475.17 667.56 463.94 672.20 452.10 C 685.93 416.93 693.67 379.61 697.74 342.17 C 682.82 296.13 654.49 255.01 619.04 222.30 C 603.79 232.40 585.08 235.86 567.03 235.25 M 441.45 233.13 C 442.92 237.34 445.06 241.58 448.81 244.21 C 452.24 246.83 456.57 247.63 460.63 248.76 C 461.06 250.71 461.12 252.71 461.31 254.69 C 462.78 254.26 464.26 253.84 465.75 253.42 C 462.34 247.69 458.98 241.59 453.46 237.60 C 449.94 235.04 445.65 233.91 441.45 233.13 M 411.99 244.01 C 415.29 248.63 419.13 253.18 424.40 255.61 C 429.03 257.82 434.30 257.79 439.33 257.66 C 439.74 259.11 440.14 260.57 440.56 262.03 C 441.61 261.44 442.66 260.85 443.73 260.26 C 440.13 253.79 435.44 247.29 428.31 244.48 C 423.14 242.18 417.33 242.66 411.99 244.01 M 47.73 245.74 C 21.65 304.08 11.69 369.59 19.91 433.00 C 20.14 440.48 24.37 446.87 27.60 453.36 C 24.24 407.89 29.63 361.51 45.51 318.65 C 46.95 314.62 48.95 310.53 48.57 306.13 C 47.88 296.76 47.39 287.39 47.21 278.00 C 46.86 267.24 47.72 256.48 47.73 245.74 M 468.35 256.96 C 466.23 261.36 464.08 265.97 464.06 270.96 C 463.63 278.14 466.94 285.22 472.01 290.17 C 474.97 286.12 476.21 280.90 476.49 275.94 C 476.77 268.73 472.87 262.26 468.35 256.96 M 389.13 263.26 C 396.59 271.54 408.84 273.17 419.18 270.37 C 419.68 271.28 420.19 272.18 420.71 273.09 C 422.43 274.20 424.02 275.54 425.17 277.27 C 425.53 276.86 425.89 276.46 426.25 276.06 C 422.13 269.18 415.95 263.17 408.04 261.03 C 401.70 259.27 395.07 260.87 389.13 263.26 M 454.53 264.33 C 455.22 265.62 455.89 266.92 456.58 268.22 C 457.04 266.56 457.47 264.89 457.92 263.24 C 456.79 263.60 455.65 263.96 454.53 264.33 M 442.11 273.16 C 438.28 281.82 440.99 291.92 446.67 299.10 C 449.03 295.35 451.26 291.40 452.11 287.00 C 453.82 279.61 451.14 271.88 446.68 265.98 C 444.09 267.18 443.40 270.75 442.11 273.16 M 425.74 279.38 C 420.98 288.96 418.74 300.53 423.19 310.67 C 427.03 306.25 430.31 301.00 430.96 295.07 C 431.83 289.31 429.88 283.62 427.47 278.48 C 427.04 278.70 426.17 279.15 425.74 279.38 M 391.40 294.43 C 386.00 300.06 383.77 307.87 382.81 315.44 C 389.39 314.04 396.03 311.69 401.02 307.01 C 407.30 301.31 410.18 292.82 410.97 284.58 C 403.78 286.13 396.49 288.90 391.40 294.43 M 69.45 324.32 C 66.19 326.64 65.88 330.93 64.61 334.41 C 45.71 391.02 45.03 453.35 61.14 510.69 C 81.34 540.65 105.80 567.95 134.49 590.04 C 174.37 577.01 214.12 563.55 253.91 550.25 C 258.02 504.23 262.47 458.24 266.64 412.23 C 225.98 370.31 185.33 328.36 144.78 286.34 C 117.95 295.03 91.76 306.85 69.45 324.32 M 525.91 522.46 C 524.73 522.48 523.60 522.87 522.87 523.83 C 490.64 557.36 458.45 590.93 426.18 624.42 C 432.43 650.92 438.96 677.35 445.26 703.83 C 458.58 703.04 471.70 700.51 484.84 698.39 C 500.57 695.85 516.16 692.52 531.55 688.40 C 551.98 682.78 571.66 673.63 588.03 660.01 C 616.35 637.71 639.50 609.61 659.71 579.94 C 657.66 556.86 655.60 533.79 653.52 510.72 C 610.98 514.63 568.45 518.58 525.91 522.46 M 144.57 611.12 C 145.40 627.88 146.32 644.63 147.63 661.36 C 190.51 696.77 242.50 720.71 296.91 731.81 C 303.49 733.59 310.31 732.22 317.01 732.20 C 342.77 730.21 368.72 728.20 393.84 721.77 C 403.89 718.97 414.21 715.79 422.95 710.05 C 416.82 683.72 410.27 657.48 404.06 631.16 C 357.74 610.91 311.32 590.87 264.90 570.84 C 224.78 584.23 184.68 597.68 144.57 611.12 Z" />
</svg>
