<?xml version="1.0" encoding="UTF-8" ?>
<!DOCTYPE svg PUBLIC "-//W3C//DTD SVG 1.1//EN" "http://www.w3.org/Graphics/SVG/1.1/DTD/svg11.dtd">
<svg width="960pt" height="669pt" viewBox="0 0 960 669" version="1.1" xmlns="http://www.w3.org/2000/svg">
<path fill="#000000" stroke="#000000" stroke-width="0.09375" opacity="1.00" d=" M 452.63 72.88 C 496.29 69.16 540.93 76.78 580.71 95.23 C 614.94 110.97 645.54 134.47 669.67 163.40 C 691.58 189.60 708.15 220.26 717.96 252.97 C 732.01 299.53 732.31 350.13 718.85 396.85 C 709.08 430.97 691.98 462.94 669.12 490.08 C 645.43 518.31 615.54 541.33 582.15 556.94 C 541.49 576.09 495.67 583.93 450.94 579.80 C 413.76 576.47 377.38 564.73 345.25 545.74 C 312.40 526.39 283.99 499.56 262.80 467.86 C 232.72 423.21 217.59 368.77 220.18 315.01 C 221.83 275.62 232.89 236.66 252.19 202.28 C 270.94 168.73 297.41 139.53 328.95 117.57 C 365.29 92.12 408.43 76.56 452.63 72.88 M 401.79 88.71 C 401.36 94.39 400.04 99.94 398.99 105.52 C 413.70 107.80 428.37 110.68 442.52 115.38 C 456.74 120.21 470.11 127.23 483.07 134.77 C 496.01 133.60 508.96 132.39 521.96 132.12 C 541.84 131.52 561.65 133.77 581.31 136.51 C 586.64 127.80 592.23 119.23 597.16 110.29 C 587.04 104.70 576.65 99.55 565.87 95.33 C 514.03 74.66 455.13 72.27 401.79 88.71 M 329.30 147.32 C 321.24 168.07 313.86 189.53 312.45 211.93 C 312.01 220.24 311.57 228.57 312.17 236.89 C 334.12 247.05 356.42 256.48 379.04 265.06 C 380.10 265.33 381.34 266.29 382.40 265.45 C 412.09 248.40 441.79 231.36 471.54 214.41 C 475.66 189.69 478.50 164.74 479.61 139.70 C 467.07 132.26 454.00 125.54 440.15 120.85 C 425.12 115.90 409.50 113.08 393.89 110.71 C 370.82 119.92 349.66 133.24 329.30 147.32 M 586.70 139.13 C 595.74 150.28 604.65 161.60 612.03 173.94 C 622.09 190.36 630.29 207.83 639.31 224.80 C 650.69 231.90 662.22 238.88 672.74 247.26 C 685.75 257.38 696.68 269.90 706.41 283.14 C 709.67 280.18 712.70 276.96 716.16 274.21 C 717.65 273.27 716.49 271.42 716.40 270.10 C 709.08 238.62 695.54 208.60 676.76 182.30 C 657.09 154.59 631.57 131.22 602.66 113.45 C 597.04 121.81 592.14 130.64 586.70 139.13 M 256.21 207.31 C 236.87 242.42 226.53 282.31 225.81 322.36 C 236.54 322.17 247.26 322.20 257.99 321.85 C 261.68 312.46 265.64 303.16 270.09 294.09 C 280.11 273.92 293.45 255.68 306.03 237.08 C 306.22 228.37 305.83 219.63 306.58 210.92 C 307.99 189.38 314.79 168.66 322.44 148.62 C 317.15 147.13 311.90 145.34 307.14 142.55 C 286.77 161.15 269.42 183.08 256.21 207.31 M 384.84 271.01 C 383.88 275.05 384.45 279.47 383.95 283.65 C 382.60 315.48 382.42 347.37 383.62 379.21 C 413.74 396.49 443.69 414.06 473.83 431.30 C 506.17 414.78 537.99 397.18 568.64 377.67 C 568.77 343.09 569.17 308.52 569.22 273.94 C 537.71 255.57 506.23 237.13 474.24 219.61 C 444.51 236.86 414.50 253.66 384.84 271.01 M 575.31 273.48 C 574.86 308.33 574.79 343.19 574.58 378.04 C 594.33 393.46 614.34 408.57 635.02 422.74 C 648.57 414.41 661.71 405.28 673.45 394.51 C 684.61 384.03 694.85 372.55 704.30 360.53 C 706.06 337.08 706.04 313.48 704.01 290.06 C 697.45 280.49 689.92 271.54 681.82 263.23 C 668.43 249.93 652.46 239.57 636.21 230.15 C 615.26 243.66 595.11 258.36 575.31 273.48 M 226.01 328.22 C 225.73 395.72 255.42 462.54 305.02 508.23 C 310.72 507.08 316.26 504.68 322.06 503.63 C 319.61 496.84 316.87 490.14 314.77 483.23 C 307.93 462.57 306.35 440.65 306.10 419.03 C 306.02 417.40 306.14 415.71 305.55 414.17 C 295.64 401.01 285.80 387.69 278.00 373.13 C 270.08 358.52 263.99 343.03 257.53 327.76 C 247.03 328.04 236.52 328.24 226.01 328.22 M 676.58 399.69 C 664.58 410.65 651.06 419.77 637.33 428.40 C 630.68 442.30 624.74 456.66 617.20 470.18 C 609.01 485.70 597.87 499.34 587.07 513.08 C 591.42 520.90 596.26 528.45 600.75 536.21 C 601.45 537.12 601.76 538.53 602.94 539.00 C 660.72 504.37 703.35 445.14 717.07 379.12 C 713.02 375.82 709.21 372.23 705.85 368.23 C 696.65 379.21 687.21 390.05 676.58 399.69 M 311.94 414.99 C 312.05 427.70 312.55 440.44 314.13 453.07 C 316.23 470.76 322.00 487.79 328.86 504.14 C 349.44 518.16 371.51 529.91 393.88 540.82 C 405.68 538.49 417.45 535.94 428.95 532.38 C 446.32 526.98 463.19 520.04 479.65 512.32 C 478.54 487.73 476.84 463.04 471.64 438.92 C 471.39 437.85 471.24 436.52 470.06 436.06 C 440.38 418.87 410.67 401.73 381.02 384.51 C 357.83 394.32 334.89 404.66 311.94 414.99 M 549.13 519.25 C 528.72 520.83 508.24 519.64 487.92 517.57 C 485.66 517.38 483.23 516.79 481.21 518.17 C 454.67 530.58 426.95 540.85 398.03 546.01 C 399.58 551.90 400.71 557.90 401.38 563.96 C 466.00 584.19 538.86 576.17 597.49 542.27 C 592.26 533.55 587.03 524.82 581.81 516.09 C 570.93 517.26 560.05 518.48 549.13 519.25 Z" />
<path fill="#fefefe" stroke="#fefefe" stroke-width="0.09375" opacity="1.00" d=" M 401.79 88.71 C 455.13 72.27 514.03 74.66 565.87 95.33 C 576.65 99.55 587.04 104.70 597.16 110.29 C 592.23 119.23 586.64 127.80 581.31 136.51 C 561.65 133.77 541.84 131.52 521.96 132.12 C 508.96 132.39 496.01 133.60 483.07 134.77 C 470.11 127.23 456.74 120.21 442.52 115.38 C 428.37 110.68 413.70 107.80 398.99 105.52 C 400.04 99.94 401.36 94.39 401.79 88.71 Z" />
<path fill="#fefefe" stroke="#fefefe" stroke-width="0.09375" opacity="1.00" d=" M 329.30 147.32 C 349.66 133.24 370.82 119.92 393.89 110.71 C 409.50 113.08 425.12 115.90 440.15 120.85 C 454.00 125.54 467.07 132.26 479.61 139.70 C 478.50 164.74 475.66 189.69 471.54 214.41 C 441.79 231.36 412.09 248.40 382.40 265.45 C 381.34 266.29 380.10 265.33 379.04 265.06 C 356.42 256.48 334.12 247.05 312.17 236.89 C 311.57 228.57 312.01 220.24 312.45 211.93 C 313.86 189.53 321.24 168.07 329.30 147.32 Z" />
<path fill="#fefefe" stroke="#fefefe" stroke-width="0.09375" opacity="1.00" d=" M 586.70 139.13 C 592.14 130.64 597.04 121.81 602.66 113.45 C 631.57 131.22 657.09 154.59 676.76 182.30 C 695.54 208.60 709.08 238.62 716.40 270.10 C 716.49 271.42 717.65 273.27 716.16 274.21 C 712.70 276.96 709.67 280.18 706.41 283.14 C 696.68 269.90 685.75 257.38 672.74 247.26 C 662.22 238.88 650.69 231.90 639.31 224.80 C 630.29 207.83 622.09 190.36 612.03 173.94 C 604.65 161.60 595.74 150.28 586.70 139.13 Z" />
<path fill="#fefefe" stroke="#fefefe" stroke-width="0.09375" opacity="1.00" d=" M 256.21 207.31 C 269.42 183.08 286.77 161.15 307.14 142.55 C 311.90 145.34 317.15 147.13 322.44 148.62 C 314.79 168.66 307.99 189.38 306.58 210.92 C 305.83 219.63 306.22 228.37 306.03 237.08 C 293.45 255.68 280.11 273.92 270.09 294.09 C 265.64 303.16 261.68 312.46 257.99 321.85 C 247.26 322.20 236.54 322.17 225.81 322.36 C 226.53 282.31 236.87 242.42 256.21 207.31 Z" />
<path fill="#fefefe" stroke="#fefefe" stroke-width="0.09375" opacity="1.00" d=" M 384.84 271.01 C 414.50 253.66 444.51 236.86 474.24 219.61 C 506.23 237.13 537.71 255.57 569.22 273.94 C 569.17 308.52 568.77 343.09 568.64 377.67 C 537.99 397.18 506.17 414.78 473.83 431.30 C 443.69 414.06 413.74 396.49 383.62 379.21 C 382.42 347.37 382.60 315.48 383.95 283.65 C 384.45 279.47 383.88 275.05 384.84 271.01 Z" />
<path fill="#fefefe" stroke="#fefefe" stroke-width="0.09375" opacity="1.00" d=" M 575.31 273.48 C 595.11 258.36 615.26 243.66 636.21 230.15 C 652.46 239.57 668.43 249.93 681.82 263.23 C 689.92 271.54 697.45 280.49 704.01 290.06 C 706.04 313.48 706.06 337.08 704.30 360.53 C 694.85 372.55 684.61 384.03 673.45 394.51 C 661.71 405.28 648.57 414.41 635.02 422.74 C 614.34 408.57 594.33 393.46 574.58 378.04 C 574.79 343.19 574.86 308.33 575.31 273.48 Z" />
<path fill="#fefefe" stroke="#fefefe" stroke-width="0.09375" opacity="1.00" d=" M 226.01 328.22 C 236.52 328.24 247.03 328.04 257.53 327.76 C 263.99 343.03 270.08 358.52 278.00 373.13 C 285.80 387.69 295.64 401.01 305.55 414.17 C 306.14 415.71 306.02 417.40 306.10 419.03 C 306.35 440.65 307.93 462.57 314.77 483.23 C 316.87 490.14 319.61 496.84 322.06 503.63 C 316.26 504.68 310.72 507.08 305.02 508.23 C 255.42 462.54 225.73 395.72 226.01 328.22 Z" />
<path fill="#fefefe" stroke="#fefefe" stroke-width="0.09375" opacity="1.00" d=" M 676.58 399.69 C 687.21 390.05 696.65 379.21 705.85 368.23 C 709.21 372.23 713.02 375.82 717.07 379.12 C 703.35 445.14 660.72 504.37 602.94 539.00 C 601.76 538.53 601.45 537.12 600.75 536.21 C 596.26 528.45 591.42 520.90 587.07 513.08 C 597.87 499.34 609.01 485.70 617.20 470.18 C 624.74 456.66 630.68 442.30 637.33 428.40 C 651.06 419.77 664.58 410.65 676.58 399.69 Z" />
<path fill="#fefefe" stroke="#fefefe" stroke-width="0.09375" opacity="1.00" d=" M 311.94 414.99 C 334.89 404.66 357.83 394.32 381.02 384.51 C 410.67 401.73 440.38 418.87 470.06 436.06 C 471.24 436.52 471.39 437.85 471.64 438.92 C 476.84 463.04 478.54 487.73 479.65 512.32 C 463.19 520.04 446.32 526.98 428.95 532.38 C 417.45 535.94 405.68 538.49 393.88 540.82 C 371.51 529.91 349.44 518.16 328.86 504.14 C 322.00 487.79 316.23 470.76 314.13 453.07 C 312.55 440.44 312.05 427.70 311.94 414.99 Z" />
<path fill="#fefefe" stroke="#fefefe" stroke-width="0.09375" opacity="1.00" d=" M 549.13 519.25 C 560.05 518.48 570.93 517.26 581.81 516.09 C 587.03 524.82 592.26 533.55 597.49 542.27 C 538.86 576.17 466.00 584.19 401.38 563.96 C 400.71 557.90 399.58 551.90 398.03 546.01 C 426.95 540.85 454.67 530.58 481.21 518.17 C 483.23 516.79 485.66 517.38 487.92 517.57 C 508.24 519.64 528.72 520.83 549.13 519.25 Z" />
</svg>
