<?xml version="1.0" encoding="UTF-8" ?>
<!DOCTYPE svg PUBLIC "-//W3C//DTD SVG 1.1//EN" "http://www.w3.org/Graphics/SVG/1.1/DTD/svg11.dtd">
<svg width="756pt" height="756pt" viewBox="0 0 756 756" version="1.1" xmlns="http://www.w3.org/2000/svg">
<path fill="#ffffff" stroke="#ffffff" stroke-width="0.09375" opacity="1.00" d=" M 726.28 11.10 C 726.14 22.77 726.39 34.85 722.12 45.91 C 719.82 52.27 715.87 57.88 711.32 62.81 C 718.74 63.62 726.14 65.57 732.55 69.48 C 736.43 71.88 739.47 75.33 742.69 78.51 C 729.84 79.66 716.87 81.13 704.64 85.44 C 717.45 84.97 730.70 85.90 742.50 91.33 C 747.30 93.42 751.13 97.08 755.02 100.48 C 734.93 101.71 714.03 102.03 695.42 110.65 C 700.24 111.16 705.19 111.34 709.83 112.91 C 715.44 114.67 720.31 118.06 725.14 121.31 C 706.84 126.82 687.87 131.94 672.15 143.26 C 664.46 148.43 659.37 156.60 656.30 165.19 C 664.16 175.91 672.03 186.63 678.93 198.01 C 726.80 275.28 743.84 370.87 726.14 459.98 C 718.04 501.47 702.73 541.58 680.93 577.81 C 640.44 645.54 577.49 699.65 504.24 729.08 C 463.45 745.68 419.66 754.54 375.68 756.00 L 356.58 756.00 C 313.12 754.41 269.87 745.68 229.52 729.35 C 155.98 699.99 92.91 645.66 52.19 577.83 C 19.64 523.91 2.05 461.40 0.00 398.55 L 0.00 381.38 C 0.84 360.72 2.90 340.09 6.85 319.78 C 16.53 269.00 37.33 220.41 67.30 178.29 C 95.30 138.52 131.43 104.56 172.62 78.71 C 240.45 35.99 322.69 16.94 402.42 24.87 C 434.89 28.04 466.89 35.66 497.45 47.08 C 489.96 36.32 480.84 26.87 472.08 17.17 C 489.88 18.79 508.45 18.60 525.11 25.93 C 535.13 30.39 542.96 38.44 549.53 47.02 C 547.14 38.23 543.46 29.88 539.83 21.55 C 547.42 24.84 555.12 28.17 561.75 33.22 C 567.64 37.54 572.51 43.06 576.88 48.88 C 573.85 43.60 570.75 38.37 567.65 33.13 C 582.60 40.18 598.07 48.38 607.53 62.47 C 616.03 74.43 618.25 89.81 616.41 104.13 C 640.24 94.49 662.31 79.36 677.73 58.57 C 683.74 50.88 687.87 41.98 691.91 33.16 C 693.91 38.77 695.65 44.54 695.98 50.53 C 708.72 39.62 716.64 24.56 726.28 11.10 M 490.07 25.97 C 504.65 42.57 517.45 61.79 521.59 83.85 C 524.12 96.06 523.68 108.59 524.19 120.99 C 524.61 129.12 526.15 137.49 530.61 144.45 C 534.32 150.45 539.57 155.24 544.87 159.80 C 532.79 171.99 517.48 180.44 501.50 186.37 C 494.81 188.99 487.58 190.49 481.56 194.59 C 473.40 200.03 467.10 209.04 466.75 219.06 C 466.49 225.16 469.89 230.81 474.26 234.82 C 478.81 238.28 479.26 244.49 482.53 248.93 C 484.70 243.46 486.43 237.24 491.46 233.63 C 500.96 227.12 512.62 224.44 524.00 224.04 C 539.14 223.69 553.91 228.09 569.05 227.93 C 586.87 228.29 605.64 224.26 619.64 212.65 C 634.51 200.57 642.97 182.62 648.81 164.78 C 651.59 155.69 656.35 147.01 663.60 140.72 C 675.71 130.07 691.17 124.66 706.08 119.23 C 698.10 117.64 689.90 118.44 681.98 120.02 C 680.87 117.95 679.78 115.87 678.70 113.79 C 685.30 107.84 693.03 103.09 701.50 100.32 C 710.62 97.14 720.28 96.10 729.77 94.60 C 715.87 91.69 701.08 91.84 687.63 96.71 C 686.20 94.77 684.79 92.83 683.38 90.89 C 693.68 79.74 709.00 75.73 723.44 73.26 C 716.06 69.99 707.58 69.17 699.80 71.41 C 698.74 69.27 697.70 67.11 696.68 64.95 C 706.53 59.05 714.32 49.41 716.89 38.12 C 710.97 45.99 704.63 53.84 696.22 59.18 C 692.50 61.43 688.51 63.19 684.52 64.89 C 685.01 63.26 685.54 61.63 686.03 59.99 C 666.84 86.87 637.78 105.55 606.58 115.50 C 609.15 104.72 611.05 93.36 608.42 82.40 C 605.67 69.86 597.18 59.25 586.83 51.98 C 592.43 64.90 595.32 79.00 594.98 93.09 C 592.61 93.42 590.25 93.76 587.88 94.09 C 585.69 86.80 583.25 79.58 580.57 72.46 C 575.20 58.57 567.05 45.00 554.21 36.85 C 555.34 40.92 556.68 44.95 557.46 49.11 C 559.36 57.70 558.73 66.54 558.86 75.27 C 549.37 60.83 541.51 44.10 526.21 34.80 C 515.32 28.36 502.43 26.99 490.07 25.97 M 247.84 60.91 C 215.44 72.44 184.51 88.61 157.74 110.32 C 176.08 116.90 194.59 122.98 213.07 129.15 C 270.54 97.22 337.23 80.57 403.01 86.42 C 405.46 86.52 408.35 87.38 410.25 85.29 C 425.21 72.98 440.52 60.69 458.18 52.43 C 453.38 50.80 448.40 49.80 443.47 48.66 C 378.86 34.16 310.09 38.17 247.84 60.91 M 311.09 115.88 C 278.90 123.23 247.89 135.62 219.44 152.38 C 215.18 155.02 210.28 157.07 207.15 161.14 C 184.46 193.42 166.55 229.90 160.31 269.15 C 201.77 311.92 243.15 354.78 284.75 397.40 C 334.68 387.67 384.64 378.11 434.62 368.62 C 444.15 342.78 453.75 316.97 463.18 291.09 C 462.05 289.38 460.94 287.66 459.84 285.94 C 458.54 295.44 452.93 303.58 446.74 310.61 C 443.50 306.97 440.55 303.11 437.78 299.10 C 435.45 308.33 429.10 315.79 422.21 322.05 C 417.67 316.48 414.36 309.82 413.53 302.63 C 411.15 306.74 408.28 310.64 404.56 313.63 C 396.36 320.50 385.52 322.79 375.16 323.91 C 375.17 313.47 376.69 302.49 382.71 293.70 C 387.59 286.11 395.76 281.47 404.12 278.67 C 393.15 277.33 383.95 269.99 377.69 261.23 C 387.28 255.20 398.99 251.12 410.35 253.88 C 406.99 249.55 403.77 245.13 400.99 240.40 C 406.79 238.18 412.69 235.74 418.99 235.58 C 425.18 235.26 431.25 237.32 436.50 240.48 C 434.38 235.58 433.13 230.36 432.17 225.12 C 438.70 225.46 445.42 225.77 451.54 228.32 C 458.44 230.88 463.66 236.43 467.63 242.45 C 468.78 244.02 469.60 246.42 472.00 246.09 C 472.37 242.21 468.81 240.06 466.60 237.49 C 459.65 230.04 457.62 218.61 461.22 209.12 C 465.06 197.99 474.13 189.30 484.66 184.39 C 459.97 159.78 435.34 135.13 410.59 110.59 C 377.47 106.03 343.63 108.59 311.09 115.88 M 636.08 206.30 C 640.70 211.22 645.68 215.79 650.36 220.65 C 663.02 233.87 674.61 248.14 684.72 263.41 C 691.15 272.07 695.57 282.00 701.74 290.83 C 690.59 252.64 672.54 216.60 649.44 184.24 C 645.48 191.87 641.51 199.59 636.08 206.30 M 564.99 235.15 C 546.27 234.59 527.26 228.02 508.73 233.63 C 507.99 235.74 507.14 237.82 506.65 240.01 C 507.58 242.56 510.79 243.29 512.16 245.62 C 509.08 247.07 505.98 248.46 502.85 249.82 C 487.22 292.51 471.61 335.21 455.96 377.89 C 479.07 418.34 502.21 458.77 525.25 499.25 C 566.85 495.61 608.43 491.73 650.02 487.95 C 651.58 487.69 653.42 487.86 654.70 486.74 C 669.83 462.68 679.20 435.55 686.18 408.15 C 691.60 386.46 695.46 364.38 697.69 342.15 C 682.93 296.04 654.45 255.05 619.09 222.30 C 603.19 232.66 583.71 236.10 564.99 235.15 M 441.43 233.09 C 442.61 236.19 443.99 239.29 446.23 241.80 C 449.85 246.02 455.43 247.48 460.63 248.72 C 460.92 250.71 461.17 252.70 461.39 254.69 C 462.85 254.27 464.31 253.85 465.78 253.44 C 462.62 248.06 459.41 242.47 454.55 238.43 C 450.82 235.35 446.07 234.03 441.43 233.09 M 411.99 244.01 C 415.33 248.56 419.15 253.07 424.34 255.56 C 428.99 257.78 434.28 257.76 439.32 257.68 C 439.75 259.13 440.17 260.57 440.59 262.03 C 441.64 261.44 442.69 260.85 443.75 260.26 C 440.20 254.11 435.87 247.79 429.13 244.85 C 423.80 242.19 417.61 242.67 411.99 244.01 M 20.44 437.02 C 21.72 442.87 24.91 448.03 27.60 453.30 C 24.21 406.56 30.02 358.88 46.88 315.04 C 49.89 308.35 47.98 301.01 47.85 294.00 C 46.78 277.94 47.37 261.85 47.73 245.78 C 21.14 305.35 11.38 372.38 20.44 437.02 M 468.34 256.95 C 466.29 261.40 464.14 266.01 464.09 271.01 C 463.82 277.98 466.76 285.32 472.01 289.87 C 475.18 286.04 476.13 280.77 476.50 275.92 C 476.81 268.71 472.86 262.24 468.34 256.95 M 389.17 263.26 C 396.64 271.44 408.86 273.11 419.19 270.44 C 420.77 273.24 423.20 275.80 426.15 277.11 C 426.03 274.95 424.48 273.34 423.27 271.70 C 419.23 266.52 413.66 262.36 407.21 260.84 C 401.12 259.41 394.85 261.03 389.17 263.26 M 454.52 264.30 C 455.22 265.60 455.92 266.90 456.64 268.20 C 457.08 266.56 457.49 264.92 457.89 263.27 C 456.76 263.61 455.64 263.95 454.52 264.30 M 446.79 299.06 C 449.78 294.17 452.52 288.82 452.62 282.95 C 452.86 276.72 450.22 270.78 446.64 265.81 C 438.04 274.74 438.79 289.93 446.79 299.06 M 425.00 280.98 C 420.79 290.19 419.14 301.14 423.20 310.70 C 426.97 306.21 430.39 301.01 430.99 295.04 C 431.83 289.23 429.84 283.51 427.39 278.33 C 426.27 278.95 425.47 279.83 425.00 280.98 M 391.90 293.95 C 386.19 299.61 383.82 307.67 382.86 315.46 C 390.06 313.85 397.42 311.10 402.52 305.54 C 407.82 299.88 410.20 292.13 411.00 284.57 C 404.08 286.25 396.94 288.67 391.90 293.95 M 69.46 324.35 C 67.16 325.98 66.33 328.82 65.53 331.38 C 64.10 336.25 62.47 341.07 61.07 345.95 C 45.80 399.45 46.06 457.21 61.26 510.68 C 81.30 540.73 105.93 567.81 134.44 590.03 C 174.33 576.96 214.14 563.61 253.94 550.26 C 258.14 504.24 262.42 458.23 266.65 412.21 C 226.03 370.26 185.43 328.29 144.80 286.35 C 117.97 295.06 91.81 306.91 69.46 324.35 M 526.85 522.37 C 525.45 522.51 523.86 522.63 522.91 523.82 C 490.66 557.35 458.44 590.92 426.16 624.43 C 432.54 650.87 438.97 677.31 445.19 703.79 C 451.88 703.42 458.53 702.59 465.15 701.61 C 485.21 698.45 505.28 695.20 524.95 690.09 C 547.32 684.78 569.04 675.46 586.97 660.88 C 615.71 638.37 639.25 610.00 659.75 579.97 C 657.71 556.89 655.64 533.81 653.56 510.73 C 611.32 514.58 569.09 518.51 526.85 522.37 M 144.58 611.11 C 145.43 627.88 146.41 644.65 147.66 661.40 C 191.43 697.43 244.55 721.66 300.13 732.43 C 307.27 733.14 314.47 732.22 321.62 731.86 C 346.27 729.93 371.08 727.76 395.07 721.43 C 404.73 718.65 414.51 715.61 422.99 710.05 C 416.71 683.75 410.43 657.44 404.09 631.16 C 357.74 610.96 311.35 590.85 264.91 570.84 C 224.79 584.24 184.70 597.73 144.58 611.11 Z" />
</svg>
